<?xml version="1.0" encoding="UTF-8"?>
<svg xmlns="http://www.w3.org/2000/svg" xmlns:xlink="http://www.w3.org/1999/xlink" width="1440pt" height="809.999993pt" viewBox="0 0 1440 809.999993" version="1.2">
<defs>
<filter id="alpha" filterUnits="objectBoundingBox" x="0%" y="0%" width="100%" height="100%">
  <feColorMatrix type="matrix" in="SourceGraphic" values="0 0 0 0 1 0 0 0 0 1 0 0 0 0 1 0 0 0 1 0"/>
</filter>
<mask id="mask0">
  <g filter="url(#alpha)">
<rect x="0" y="0" width="1440" height="809.999993" style="fill:rgb(0%,0%,0%);fill-opacity:0.349;stroke:none;"/>
  </g>
</mask>
<clipPath id="clip1">
  <rect x="0" y="0" width="1440" height="248"/>
</clipPath>
<g id="surface5" clip-path="url(#clip1)">
<path style=" stroke:none;fill-rule:nonzero;fill:rgb(54.508972%,84.709167%,74.119568%);fill-opacity:1;" d="M -47.484375 124.804688 C 107.878906 9.332031 321.582031 36.972656 525.765625 91.945312 C 729.949219 146.917969 902.199219 1.960938 1087.652344 4.109375 C 1273.105469 6.257812 1385.789062 104.84375 1487.730469 112.214844 L 1487.730469 354.21875 L -47.484375 354.21875 Z M -47.484375 124.804688 "/>
</g>
<clipPath id="clip2">
  <path d="M 756.550781 446.886719 L 787.835938 446.886719 L 787.835938 479.136719 L 756.550781 479.136719 Z M 756.550781 446.886719 "/>
</clipPath>
<clipPath id="clip3">
  <path d="M 218.261719 427.460938 L 249.546875 427.460938 L 249.546875 459.710938 L 218.261719 459.710938 Z M 218.261719 427.460938 "/>
</clipPath>
<clipPath id="clip4">
  <path d="M 874.070312 385.53125 L 887.570312 385.53125 L 887.570312 399.03125 L 874.070312 399.03125 Z M 874.070312 385.53125 "/>
</clipPath>
<clipPath id="clip5">
  <path d="M 38.363281 427.171875 L 51.863281 427.171875 L 51.863281 440.671875 L 38.363281 440.671875 Z M 38.363281 427.171875 "/>
</clipPath>
<clipPath id="clip6">
  <path d="M 1017.085938 454 L 1048.371094 454 L 1048.371094 486.25 L 1017.085938 486.25 Z M 1017.085938 454 "/>
</clipPath>
<clipPath id="clip7">
  <path d="M 33.515625 276.429688 L 64.800781 276.429688 L 64.800781 308.679688 L 33.515625 308.679688 Z M 33.515625 276.429688 "/>
</clipPath>
<clipPath id="clip8">
  <path d="M 128.660156 342.777344 L 142.160156 342.777344 L 142.160156 356.277344 L 128.660156 356.277344 Z M 128.660156 342.777344 "/>
</clipPath>
<clipPath id="clip9">
  <path d="M 860.425781 493.058594 L 873.925781 493.058594 L 873.925781 506.558594 L 860.425781 506.558594 Z M 860.425781 493.058594 "/>
</clipPath>
<clipPath id="clip10">
  <path d="M 391.382812 464.179688 L 422.667969 464.179688 L 422.667969 496.429688 L 391.382812 496.429688 Z M 391.382812 464.179688 "/>
</clipPath>
<clipPath id="clip11">
  <path d="M 509 390 L 542 390 L 542 425 L 509 425 Z M 509 390 "/>
</clipPath>
<clipPath id="clip12">
  <path d="M 546.105469 412.003906 L 518.417969 427.03125 L 503.035156 398.6875 L 530.722656 383.660156 Z M 546.105469 412.003906 "/>
</clipPath>
<clipPath id="clip13">
  <path d="M 546.292969 411.902344 L 518.609375 426.925781 L 503.226562 398.582031 L 530.910156 383.558594 Z M 546.292969 411.902344 "/>
</clipPath>
<clipPath id="clip14">
  <path d="M 568.6875 505.519531 L 582.1875 505.519531 L 582.1875 519.019531 L 568.6875 519.019531 Z M 568.6875 505.519531 "/>
</clipPath>
<clipPath id="clip15">
  <path d="M 347.203125 383.3125 L 360.703125 383.3125 L 360.703125 396.8125 L 347.203125 396.8125 Z M 347.203125 383.3125 "/>
</clipPath>
<clipPath id="clip16">
  <path d="M 673.53125 527.707031 L 704.816406 527.707031 L 704.816406 559.957031 L 673.53125 559.957031 Z M 673.53125 527.707031 "/>
</clipPath>
<clipPath id="clip17">
  <path d="M 1086.503906 370.136719 L 1100.003906 370.136719 L 1100.003906 383.636719 L 1086.503906 383.636719 Z M 1086.503906 370.136719 "/>
</clipPath>
<clipPath id="clip18">
  <path d="M 650.574219 426.996094 L 664.074219 426.996094 L 664.074219 440.496094 L 650.574219 440.496094 Z M 650.574219 426.996094 "/>
</clipPath>
<clipPath id="clip19">
  <path d="M 1226 428 L 1258 428 L 1258 464 L 1226 464 Z M 1226 428 "/>
</clipPath>
<clipPath id="clip20">
  <path d="M 1265.085938 439.222656 L 1248.15625 465.785156 L 1220.960938 448.449219 L 1237.890625 421.886719 Z M 1265.085938 439.222656 "/>
</clipPath>
<clipPath id="clip21">
  <path d="M 1265.203125 439.039062 L 1248.273438 465.601562 L 1221.078125 448.269531 L 1238.007812 421.707031 Z M 1265.203125 439.039062 "/>
</clipPath>
<clipPath id="clip22">
  <path d="M 1316.183594 370.136719 L 1329.683594 370.136719 L 1329.683594 383.636719 L 1316.183594 383.636719 Z M 1316.183594 370.136719 "/>
</clipPath>
<clipPath id="clip23">
  <path d="M 1393.097656 493.058594 L 1406.597656 493.058594 L 1406.597656 506.558594 L 1393.097656 506.558594 Z M 1393.097656 493.058594 "/>
</clipPath>
<clipPath id="clip24">
  <path d="M 1375 276.429688 L 1406.242188 276.429688 L 1406.242188 308.679688 L 1375 308.679688 Z M 1375 276.429688 "/>
</clipPath>
<clipPath id="clip25">
  <path d="M 1193.0625 383.917969 L 1206.5625 383.917969 L 1206.5625 397.417969 L 1193.0625 397.417969 Z M 1193.0625 383.917969 "/>
</clipPath>
</defs>
<g id="surface1">
<use xlink:href="#surface5" transform="matrix(1,0,0,1,0,562)" mask="url(#mask0)"/>
<g clip-path="url(#clip2)" clip-rule="nonzero">
<path style=" stroke:none;fill-rule:nonzero;fill:rgb(54.508972%,84.709167%,74.119568%);fill-opacity:1;" d="M 770.273438 478.648438 C 770.519531 475.222656 769.398438 471.488281 769.144531 467.835938 C 765.109375 470.785156 763.472656 476.132812 758.101562 477.75 C 758 474.753906 760.941406 473.167969 762.609375 471.21875 C 764.425781 469.089844 765.941406 466.789062 767.796875 464.910156 C 764.375 462.621094 759.085938 462.203125 756.976562 458.601562 C 760.875 456.636719 764.433594 460.3125 767.796875 461.078125 C 769.101562 456.5625 766.535156 450.816406 767.34375 446.886719 C 773.042969 447.199219 771.308594 454.945312 772.078125 460.179688 C 773.660156 458.746094 775.070312 457.027344 776.8125 455.222656 C 778.570312 453.402344 780.027344 451.003906 782.445312 451.394531 C 782.648438 451.726562 781.722656 453.558594 781.320312 454.097656 C 779.109375 457.058594 775.246094 459.988281 773.203125 463.109375 C 778.476562 465.046875 783.707031 467.023438 787.625 470.316406 C 784.1875 473.351562 777.40625 466.871094 772.75 466.484375 C 772.710938 470.769531 774.449219 475.035156 773.429688 478.875 C 772.644531 479.320312 770.8125 479.171875 770.273438 478.648438 Z M 770.273438 478.648438 "/>
</g>
<g clip-path="url(#clip3)" clip-rule="nonzero">
<path style=" stroke:none;fill-rule:nonzero;fill:rgb(54.508972%,84.709167%,74.119568%);fill-opacity:1;" d="M 231.984375 459.222656 C 232.230469 455.796875 231.113281 452.0625 230.859375 448.410156 C 226.820312 451.359375 225.183594 456.703125 219.816406 458.324219 C 219.710938 455.328125 222.65625 453.742188 224.324219 451.789062 C 226.136719 449.664062 227.652344 447.363281 229.507812 445.480469 C 226.089844 443.191406 220.796875 442.773438 218.6875 439.171875 C 222.585938 437.207031 226.144531 440.882812 229.507812 441.652344 C 230.8125 437.132812 228.246094 431.390625 229.058594 427.460938 C 234.753906 427.773438 233.019531 435.515625 233.789062 440.75 C 235.375 439.316406 236.785156 437.597656 238.523438 435.796875 C 240.28125 433.976562 241.738281 431.578125 244.15625 431.96875 C 244.359375 432.300781 243.433594 434.128906 243.03125 434.667969 C 240.824219 437.628906 236.957031 440.5625 234.917969 443.679688 C 240.1875 445.617188 245.417969 447.597656 249.339844 450.886719 C 245.902344 453.925781 239.117188 447.445312 234.464844 447.058594 C 234.421875 451.339844 236.160156 455.605469 235.140625 459.445312 C 234.355469 459.890625 232.523438 459.746094 231.984375 459.222656 Z M 231.984375 459.222656 "/>
</g>
<g clip-path="url(#clip4)" clip-rule="nonzero">
<path style=" stroke:none;fill-rule:evenodd;fill:rgb(54.508972%,84.709167%,74.119568%);fill-opacity:1;" d="M 881.472656 397.167969 C 877.882812 400.226562 872.738281 397.105469 874.390625 391.519531 C 874.609375 390.777344 875.460938 390.207031 875.769531 389.402344 C 876.234375 388.210938 875.910156 386.933594 876.636719 386.402344 C 881.082031 383.714844 888.253906 385.457031 887.519531 391.167969 C 887.457031 391.648438 886.960938 392.121094 886.828125 392.753906 C 886.332031 395.140625 886.667969 397.488281 884.929688 398.753906 C 883.226562 399.671875 881.828125 398.628906 881.472656 397.167969 Z M 879.917969 393.460938 C 879.257812 393.847656 877.980469 393.601562 878.191406 394.871094 C 879.148438 395.328125 880.0625 394.671875 879.917969 393.460938 Z M 879.917969 393.460938 "/>
</g>
<g clip-path="url(#clip5)" clip-rule="nonzero">
<path style=" stroke:none;fill-rule:evenodd;fill:rgb(54.508972%,84.709167%,74.119568%);fill-opacity:1;" d="M 45.765625 438.808594 C 42.171875 441.871094 37.03125 438.75 38.679688 433.164062 C 38.902344 432.417969 39.75 431.847656 40.0625 431.042969 C 40.527344 429.851562 40.203125 428.574219 40.925781 428.042969 C 45.375 425.359375 52.546875 427.097656 51.808594 432.808594 C 51.746094 433.292969 51.25 433.761719 51.121094 434.398438 C 50.621094 436.78125 50.957031 439.128906 49.21875 440.398438 C 47.515625 441.316406 46.121094 440.269531 45.765625 438.808594 Z M 44.207031 435.101562 C 43.550781 435.492188 42.273438 435.242188 42.480469 436.515625 C 43.441406 436.96875 44.355469 436.3125 44.207031 435.101562 Z M 44.207031 435.101562 "/>
</g>
<g clip-path="url(#clip6)" clip-rule="nonzero">
<path style=" stroke:none;fill-rule:nonzero;fill:rgb(54.508972%,84.709167%,74.119568%);fill-opacity:1;" d="M 1030.808594 485.761719 C 1031.054688 482.335938 1029.933594 478.601562 1029.679688 474.949219 C 1025.644531 477.898438 1024.007812 483.242188 1018.636719 484.863281 C 1018.535156 481.867188 1021.476562 480.28125 1023.144531 478.328125 C 1024.960938 476.203125 1026.476562 473.902344 1028.332031 472.019531 C 1024.910156 469.734375 1019.617188 469.3125 1017.511719 465.714844 C 1021.410156 463.746094 1024.96875 467.421875 1028.332031 468.191406 C 1029.636719 463.671875 1027.070312 457.929688 1027.878906 454 C 1033.578125 454.3125 1031.84375 462.054688 1032.613281 467.289062 C 1034.195312 465.859375 1035.605469 464.136719 1037.347656 462.335938 C 1039.105469 460.515625 1040.5625 458.117188 1042.980469 458.507812 C 1043.183594 458.839844 1042.257812 460.671875 1041.855469 461.207031 C 1039.644531 464.167969 1035.78125 467.101562 1033.738281 470.21875 C 1039.011719 472.15625 1044.242188 474.136719 1048.160156 477.425781 C 1044.722656 480.464844 1037.941406 473.984375 1033.285156 473.597656 C 1033.246094 477.878906 1034.984375 482.144531 1033.964844 485.988281 C 1033.179688 486.429688 1031.347656 486.285156 1030.808594 485.761719 Z M 1030.808594 485.761719 "/>
</g>
<g clip-path="url(#clip7)" clip-rule="nonzero">
<path style=" stroke:none;fill-rule:nonzero;fill:rgb(54.508972%,84.709167%,74.119568%);fill-opacity:1;" d="M 47.238281 308.191406 C 47.484375 304.765625 46.363281 301.03125 46.109375 297.378906 C 42.074219 300.328125 40.4375 305.671875 35.066406 307.292969 C 34.964844 304.296875 37.910156 302.710938 39.574219 300.757812 C 41.390625 298.632812 42.90625 296.332031 44.761719 294.449219 C 41.339844 292.160156 36.050781 291.742188 33.941406 288.140625 C 37.839844 286.175781 41.398438 289.851562 44.761719 290.621094 C 46.066406 286.101562 43.5 280.359375 44.308594 276.429688 C 50.007812 276.742188 48.273438 284.484375 49.042969 289.71875 C 50.625 288.285156 52.035156 286.566406 53.777344 284.765625 C 55.535156 282.945312 56.992188 280.546875 59.410156 280.9375 C 59.613281 281.269531 58.6875 283.097656 58.285156 283.636719 C 56.074219 286.597656 52.210938 289.53125 50.167969 292.648438 C 55.441406 294.585938 60.671875 296.566406 64.589844 299.855469 C 61.152344 302.894531 54.371094 296.414062 49.714844 296.027344 C 49.675781 300.308594 51.414062 304.574219 50.394531 308.414062 C 49.609375 308.859375 47.777344 308.714844 47.238281 308.191406 Z M 47.238281 308.191406 "/>
</g>
<g clip-path="url(#clip8)" clip-rule="nonzero">
<path style=" stroke:none;fill-rule:evenodd;fill:rgb(54.508972%,84.709167%,74.119568%);fill-opacity:1;" d="M 136.0625 354.414062 C 132.46875 357.472656 127.328125 354.355469 128.980469 348.765625 C 129.199219 348.023438 130.050781 347.453125 130.359375 346.648438 C 130.824219 345.457031 130.5 344.179688 131.226562 343.648438 C 135.671875 340.960938 142.84375 342.703125 142.109375 348.414062 C 142.046875 348.898438 141.550781 349.367188 141.417969 350 C 140.921875 352.386719 141.253906 354.734375 139.515625 356.003906 C 137.8125 356.917969 136.417969 355.875 136.0625 354.414062 Z M 134.507812 350.707031 C 133.847656 351.09375 132.570312 350.847656 132.78125 352.117188 C 133.738281 352.574219 134.652344 351.917969 134.507812 350.707031 Z M 134.507812 350.707031 "/>
</g>
<g clip-path="url(#clip9)" clip-rule="nonzero">
<path style=" stroke:none;fill-rule:evenodd;fill:rgb(54.508972%,84.709167%,74.119568%);fill-opacity:1;" d="M 867.828125 504.695312 C 864.234375 507.757812 859.09375 504.636719 860.746094 499.050781 C 860.964844 498.308594 861.8125 497.734375 862.125 496.933594 C 862.589844 495.738281 862.265625 494.460938 862.988281 493.933594 C 867.4375 491.246094 874.609375 492.984375 873.875 498.695312 C 873.8125 499.179688 873.316406 499.648438 873.183594 500.285156 C 872.683594 502.667969 873.019531 505.019531 871.28125 506.285156 C 869.578125 507.203125 868.183594 506.160156 867.828125 504.695312 Z M 866.273438 500.992188 C 865.613281 501.378906 864.335938 501.128906 864.542969 502.402344 C 865.503906 502.859375 866.417969 502.203125 866.273438 500.992188 Z M 866.273438 500.992188 "/>
</g>
<g clip-path="url(#clip10)" clip-rule="nonzero">
<path style=" stroke:none;fill-rule:nonzero;fill:rgb(54.508972%,84.709167%,74.119568%);fill-opacity:1;" d="M 405.105469 495.941406 C 405.351562 492.515625 404.230469 488.78125 403.976562 485.128906 C 399.941406 488.078125 398.304688 493.421875 392.933594 495.039062 C 392.832031 492.042969 395.777344 490.460938 397.441406 488.507812 C 399.257812 486.382812 400.773438 484.082031 402.628906 482.199219 C 399.207031 479.910156 393.917969 479.492188 391.808594 475.890625 C 395.707031 473.925781 399.265625 477.601562 402.628906 478.371094 C 403.933594 473.851562 401.367188 468.105469 402.175781 464.179688 C 407.875 464.492188 406.140625 472.234375 406.910156 477.46875 C 408.492188 476.035156 409.902344 474.316406 411.644531 472.515625 C 413.402344 470.695312 414.859375 468.296875 417.277344 468.683594 C 417.480469 469.019531 416.554688 470.847656 416.152344 471.386719 C 413.941406 474.347656 410.078125 477.28125 408.035156 480.398438 C 413.308594 482.335938 418.539062 484.316406 422.457031 487.605469 C 419.019531 490.640625 412.238281 484.164062 407.582031 483.777344 C 407.542969 488.058594 409.28125 492.324219 408.261719 496.164062 C 407.476562 496.609375 405.644531 496.464844 405.105469 495.941406 Z M 405.105469 495.941406 "/>
</g>
<g clip-path="url(#clip11)" clip-rule="nonzero">
<g clip-path="url(#clip12)" clip-rule="nonzero">
<g clip-path="url(#clip13)" clip-rule="nonzero">
<path style=" stroke:none;fill-rule:nonzero;fill:rgb(54.508972%,84.709167%,74.119568%);fill-opacity:1;" d="M 530.4375 419.953125 C 529.019531 416.824219 526.253906 414.074219 524.289062 410.988281 C 522.148438 415.503906 523.257812 420.984375 519.308594 424.96875 C 517.789062 422.382812 519.621094 419.585938 520.15625 417.074219 C 520.738281 414.339844 520.972656 411.59375 521.703125 409.058594 C 517.609375 408.675781 512.757812 410.832031 509.1875 408.675781 C 511.675781 405.089844 516.554688 406.621094 519.878906 405.691406 C 518.871094 401.097656 513.871094 397.273438 512.710938 393.433594 C 517.871094 390.988281 520.039062 398.625 523.210938 402.855469 C 523.917969 400.84375 524.339844 398.65625 525.007812 396.246094 C 525.6875 393.808594 525.824219 391.003906 528.132812 390.191406 C 528.46875 390.386719 528.527344 392.4375 528.433594 393.105469 C 527.902344 396.757812 525.902344 401.179688 525.597656 404.894531 C 531.15625 404.082031 536.695312 403.328125 541.710938 404.351562 C 540.140625 408.660156 531.085938 406.199219 526.8125 408.078125 C 528.820312 411.863281 532.378906 414.78125 533.316406 418.644531 C 532.839844 419.410156 531.160156 420.15625 530.4375 419.953125 Z M 530.4375 419.953125 "/>
</g>
</g>
</g>
<g clip-path="url(#clip14)" clip-rule="nonzero">
<path style=" stroke:none;fill-rule:evenodd;fill:rgb(54.508972%,84.709167%,74.119568%);fill-opacity:1;" d="M 576.089844 517.160156 C 572.496094 520.21875 567.355469 517.097656 569.007812 511.511719 C 569.226562 510.769531 570.078125 510.195312 570.386719 509.394531 C 570.851562 508.199219 570.527344 506.921875 571.253906 506.394531 C 575.699219 503.707031 582.871094 505.445312 582.136719 511.15625 C 582.074219 511.640625 581.578125 512.109375 581.445312 512.746094 C 580.949219 515.128906 581.285156 517.480469 579.542969 518.746094 C 577.839844 519.664062 576.445312 518.621094 576.089844 517.160156 Z M 574.535156 513.453125 C 573.875 513.839844 572.597656 513.589844 572.808594 514.863281 C 573.765625 515.320312 574.679688 514.664062 574.535156 513.453125 Z M 574.535156 513.453125 "/>
</g>
<g clip-path="url(#clip15)" clip-rule="nonzero">
<path style=" stroke:none;fill-rule:evenodd;fill:rgb(54.508972%,84.709167%,74.119568%);fill-opacity:1;" d="M 354.601562 394.953125 C 351.011719 398.011719 345.867188 394.890625 347.519531 389.304688 C 347.738281 388.5625 348.589844 387.988281 348.902344 387.1875 C 349.367188 385.992188 349.042969 384.714844 349.765625 384.1875 C 354.214844 381.5 361.386719 383.238281 360.648438 388.949219 C 360.585938 389.433594 360.089844 389.902344 359.957031 390.539062 C 359.460938 392.921875 359.796875 395.273438 358.058594 396.539062 C 356.355469 397.457031 354.960938 396.414062 354.601562 394.953125 Z M 353.046875 391.246094 C 352.390625 391.632812 351.113281 391.382812 351.320312 392.65625 C 352.28125 393.113281 353.191406 392.457031 353.046875 391.246094 Z M 353.046875 391.246094 "/>
</g>
<g clip-path="url(#clip16)" clip-rule="nonzero">
<path style=" stroke:none;fill-rule:nonzero;fill:rgb(54.508972%,84.709167%,74.119568%);fill-opacity:1;" d="M 687.253906 559.46875 C 687.5 556.042969 686.382812 552.308594 686.128906 548.65625 C 682.089844 551.605469 680.453125 556.953125 675.085938 558.570312 C 674.980469 555.574219 677.925781 553.988281 679.59375 552.039062 C 681.410156 549.910156 682.925781 547.609375 684.777344 545.730469 C 681.359375 543.441406 676.066406 543.023438 673.957031 539.421875 C 677.855469 537.457031 681.414062 541.132812 684.777344 541.898438 C 686.082031 537.382812 683.515625 531.636719 684.328125 527.707031 C 690.023438 528.019531 688.289062 535.761719 689.0625 540.996094 C 690.644531 539.566406 692.054688 537.84375 693.792969 536.042969 C 695.550781 534.222656 697.007812 531.824219 699.425781 532.214844 C 699.628906 532.546875 698.703125 534.378906 698.300781 534.917969 C 696.09375 537.878906 692.226562 540.808594 690.1875 543.929688 C 695.457031 545.867188 700.6875 547.84375 704.609375 551.136719 C 701.171875 554.171875 694.386719 547.691406 689.734375 547.304688 C 689.695312 551.589844 691.429688 555.855469 690.410156 559.695312 C 689.625 560.140625 687.792969 559.992188 687.253906 559.46875 Z M 687.253906 559.46875 "/>
</g>
<g clip-path="url(#clip17)" clip-rule="nonzero">
<path style=" stroke:none;fill-rule:evenodd;fill:rgb(54.508972%,84.709167%,74.119568%);fill-opacity:1;" d="M 1093.902344 381.773438 C 1090.3125 384.835938 1085.167969 381.714844 1086.820312 376.128906 C 1087.039062 375.382812 1087.890625 374.8125 1088.203125 374.007812 C 1088.664062 372.816406 1088.339844 371.539062 1089.066406 371.011719 C 1093.511719 368.324219 1100.6875 370.0625 1099.949219 375.773438 C 1099.886719 376.257812 1099.390625 376.726562 1099.257812 377.363281 C 1098.761719 379.746094 1099.097656 382.097656 1097.359375 383.363281 C 1095.65625 384.28125 1094.257812 383.234375 1093.902344 381.773438 Z M 1092.347656 378.070312 C 1091.691406 378.457031 1090.410156 378.207031 1090.621094 379.480469 C 1091.578125 379.933594 1092.492188 379.28125 1092.347656 378.070312 Z M 1092.347656 378.070312 "/>
</g>
<g clip-path="url(#clip18)" clip-rule="nonzero">
<path style=" stroke:none;fill-rule:evenodd;fill:rgb(54.508972%,84.709167%,74.119568%);fill-opacity:1;" d="M 657.976562 438.632812 C 654.382812 441.695312 649.242188 438.574219 650.894531 432.988281 C 651.113281 432.242188 651.964844 431.671875 652.273438 430.871094 C 652.738281 429.675781 652.414062 428.398438 653.136719 427.871094 C 657.585938 425.183594 664.757812 426.921875 664.023438 432.632812 C 663.960938 433.117188 663.464844 433.585938 663.332031 434.222656 C 662.835938 436.605469 663.167969 438.957031 661.429688 440.222656 C 659.726562 441.140625 658.332031 440.09375 657.976562 438.632812 Z M 656.421875 434.929688 C 655.761719 435.316406 654.484375 435.066406 654.695312 436.339844 C 655.652344 436.792969 656.566406 436.140625 656.421875 434.929688 Z M 656.421875 434.929688 "/>
</g>
<g clip-path="url(#clip19)" clip-rule="nonzero">
<g clip-path="url(#clip20)" clip-rule="nonzero">
<g clip-path="url(#clip21)" clip-rule="nonzero">
<path style=" stroke:none;fill-rule:nonzero;fill:rgb(54.508972%,84.709167%,74.119568%);fill-opacity:1;" d="M 1255.234375 453.769531 C 1252.480469 451.71875 1248.726562 450.65625 1245.511719 448.90625 C 1245.828125 453.898438 1249.457031 458.152344 1247.933594 463.546875 C 1245.351562 462.023438 1245.597656 458.691406 1244.847656 456.234375 C 1244.03125 453.5625 1242.90625 451.046875 1242.316406 448.472656 C 1238.550781 450.125 1235.351562 454.363281 1231.183594 454.203125 C 1231.621094 449.863281 1236.632812 448.835938 1239.085938 446.414062 C 1235.980469 442.882812 1229.753906 441.960938 1226.878906 439.164062 C 1230.203125 434.527344 1235.800781 440.152344 1240.628906 442.316406 C 1240.273438 440.214844 1239.578125 438.097656 1238.996094 435.664062 C 1238.40625 433.203125 1237.167969 430.683594 1238.792969 428.855469 C 1239.183594 428.863281 1240.230469 430.628906 1240.46875 431.253906 C 1241.777344 434.710938 1242.171875 439.546875 1243.707031 442.941406 C 1248.171875 439.539062 1252.652344 436.191406 1257.535156 434.65625 C 1258.246094 439.1875 1249.136719 441.421875 1246.308594 445.140625 C 1249.898438 447.476562 1254.429688 448.304688 1257.121094 451.230469 C 1257.074219 452.128906 1255.964844 453.59375 1255.234375 453.769531 Z M 1255.234375 453.769531 "/>
</g>
</g>
</g>
<g clip-path="url(#clip22)" clip-rule="nonzero">
<path style=" stroke:none;fill-rule:evenodd;fill:rgb(54.508972%,84.709167%,74.119568%);fill-opacity:1;" d="M 1323.585938 381.773438 C 1319.996094 384.835938 1314.851562 381.714844 1316.503906 376.128906 C 1316.722656 375.382812 1317.574219 374.8125 1317.886719 374.007812 C 1318.347656 372.816406 1318.023438 371.539062 1318.75 371.011719 C 1323.195312 368.324219 1330.367188 370.0625 1329.632812 375.773438 C 1329.570312 376.257812 1329.074219 376.726562 1328.941406 377.363281 C 1328.445312 379.746094 1328.78125 382.097656 1327.042969 383.363281 C 1325.339844 384.28125 1323.941406 383.234375 1323.585938 381.773438 Z M 1322.03125 378.070312 C 1321.375 378.457031 1320.09375 378.207031 1320.304688 379.480469 C 1321.261719 379.933594 1322.175781 379.28125 1322.03125 378.070312 Z M 1322.03125 378.070312 "/>
</g>
<g clip-path="url(#clip23)" clip-rule="nonzero">
<path style=" stroke:none;fill-rule:evenodd;fill:rgb(54.508972%,84.709167%,74.119568%);fill-opacity:1;" d="M 1400.496094 504.695312 C 1396.90625 507.757812 1391.761719 504.636719 1393.414062 499.050781 C 1393.632812 498.308594 1394.484375 497.734375 1394.796875 496.933594 C 1395.261719 495.738281 1394.933594 494.460938 1395.660156 493.933594 C 1400.109375 491.246094 1407.28125 492.984375 1406.542969 498.695312 C 1406.480469 499.179688 1405.984375 499.648438 1405.851562 500.285156 C 1405.355469 502.667969 1405.691406 505.019531 1403.953125 506.285156 C 1402.25 507.203125 1400.851562 506.160156 1400.496094 504.695312 Z M 1398.941406 500.992188 C 1398.285156 501.378906 1397.003906 501.128906 1397.214844 502.402344 C 1398.171875 502.859375 1399.085938 502.203125 1398.941406 500.992188 Z M 1398.941406 500.992188 "/>
</g>
<g clip-path="url(#clip24)" clip-rule="nonzero">
<path style=" stroke:none;fill-rule:nonzero;fill:rgb(54.508972%,84.709167%,74.119568%);fill-opacity:1;" d="M 1388.679688 308.191406 C 1388.925781 304.765625 1387.808594 301.03125 1387.554688 297.378906 C 1383.515625 300.328125 1381.878906 305.671875 1376.511719 307.292969 C 1376.40625 304.296875 1379.351562 302.710938 1381.019531 300.757812 C 1382.832031 298.632812 1384.347656 296.332031 1386.203125 294.449219 C 1382.785156 292.160156 1377.492188 291.742188 1375.382812 288.140625 C 1379.28125 286.175781 1382.839844 289.851562 1386.203125 290.621094 C 1387.507812 286.101562 1384.941406 280.359375 1385.753906 276.429688 C 1391.449219 276.742188 1389.714844 284.484375 1390.484375 289.71875 C 1392.066406 288.285156 1393.480469 286.566406 1395.21875 284.765625 C 1396.976562 282.945312 1398.433594 280.546875 1400.851562 280.9375 C 1401.054688 281.269531 1400.128906 283.097656 1399.726562 283.636719 C 1397.515625 286.597656 1393.652344 289.53125 1391.613281 292.648438 C 1396.882812 294.585938 1402.113281 296.566406 1406.035156 299.855469 C 1402.597656 302.894531 1395.8125 296.414062 1391.15625 296.027344 C 1391.117188 300.308594 1392.855469 304.574219 1391.835938 308.414062 C 1391.050781 308.859375 1389.21875 308.714844 1388.679688 308.191406 Z M 1388.679688 308.191406 "/>
</g>
<g clip-path="url(#clip25)" clip-rule="nonzero">
<path style=" stroke:none;fill-rule:evenodd;fill:rgb(54.508972%,84.709167%,74.119568%);fill-opacity:1;" d="M 1200.464844 395.558594 C 1196.871094 398.617188 1191.730469 395.496094 1193.378906 389.910156 C 1193.601562 389.167969 1194.449219 388.59375 1194.761719 387.792969 C 1195.226562 386.597656 1194.902344 385.320312 1195.625 384.792969 C 1200.074219 382.105469 1207.246094 383.84375 1206.507812 389.554688 C 1206.445312 390.039062 1205.949219 390.507812 1205.820312 391.144531 C 1205.320312 393.527344 1205.65625 395.878906 1203.917969 397.144531 C 1202.214844 398.0625 1200.820312 397.019531 1200.464844 395.558594 Z M 1198.910156 391.851562 C 1198.25 392.238281 1196.972656 391.988281 1197.179688 393.261719 C 1198.140625 393.71875 1199.054688 393.0625 1198.910156 391.851562 Z M 1198.910156 391.851562 "/>
</g>
</g>
</svg>
