<?xml version="1.0" encoding="UTF-8"?>
<svg xmlns="http://www.w3.org/2000/svg" xmlns:xlink="http://www.w3.org/1999/xlink" width="1440pt" height="809.999993pt" viewBox="0 0 1440 809.999993" version="1.2">
<defs>
<clipPath id="clip1">
  <path d="M 762.09375 251.820312 L 793.378906 251.820312 L 793.378906 284.070312 L 762.09375 284.070312 Z M 762.09375 251.820312 "/>
</clipPath>
<clipPath id="clip2">
  <path d="M 224 232.394531 L 255 232.394531 L 255 264.644531 L 224 264.644531 Z M 224 232.394531 "/>
</clipPath>
<clipPath id="clip3">
  <path d="M 879.613281 190.464844 L 893.113281 190.464844 L 893.113281 203.964844 L 879.613281 203.964844 Z M 879.613281 190.464844 "/>
</clipPath>
<clipPath id="clip4">
  <path d="M 43.90625 232.105469 L 57.40625 232.105469 L 57.40625 245.605469 L 43.90625 245.605469 Z M 43.90625 232.105469 "/>
</clipPath>
<clipPath id="clip5">
  <path d="M 1023 258.933594 L 1053.914062 258.933594 L 1053.914062 291.183594 L 1023 291.183594 Z M 1023 258.933594 "/>
</clipPath>
<clipPath id="clip6">
  <path d="M 39.058594 81.363281 L 70.34375 81.363281 L 70.34375 113.613281 L 39.058594 113.613281 Z M 39.058594 81.363281 "/>
</clipPath>
<clipPath id="clip7">
  <path d="M 134.203125 147.710938 L 147.703125 147.710938 L 147.703125 161.210938 L 134.203125 161.210938 Z M 134.203125 147.710938 "/>
</clipPath>
<clipPath id="clip8">
  <path d="M 865.96875 297.992188 L 879.46875 297.992188 L 879.46875 311.492188 L 865.96875 311.492188 Z M 865.96875 297.992188 "/>
</clipPath>
<clipPath id="clip9">
  <path d="M 397 269.113281 L 428 269.113281 L 428 301.363281 L 397 301.363281 Z M 397 269.113281 "/>
</clipPath>
<clipPath id="clip10">
  <path d="M 514 195 L 548 195 L 548 230 L 514 230 Z M 514 195 "/>
</clipPath>
<clipPath id="clip11">
  <path d="M 551.648438 216.9375 L 523.960938 231.964844 L 508.578125 203.621094 L 536.261719 188.59375 Z M 551.648438 216.9375 "/>
</clipPath>
<clipPath id="clip12">
  <path d="M 551.835938 216.835938 L 524.152344 231.863281 L 508.769531 203.515625 L 536.453125 188.492188 Z M 551.835938 216.835938 "/>
</clipPath>
<clipPath id="clip13">
  <path d="M 574.230469 310.453125 L 587.730469 310.453125 L 587.730469 323.953125 L 574.230469 323.953125 Z M 574.230469 310.453125 "/>
</clipPath>
<clipPath id="clip14">
  <path d="M 352.746094 188.246094 L 366.246094 188.246094 L 366.246094 201.746094 L 352.746094 201.746094 Z M 352.746094 188.246094 "/>
</clipPath>
<clipPath id="clip15">
  <path d="M 679.074219 332.640625 L 710.359375 332.640625 L 710.359375 364.890625 L 679.074219 364.890625 Z M 679.074219 332.640625 "/>
</clipPath>
<clipPath id="clip16">
  <path d="M 1092.042969 175.070312 L 1105.542969 175.070312 L 1105.542969 188.570312 L 1092.042969 188.570312 Z M 1092.042969 175.070312 "/>
</clipPath>
<clipPath id="clip17">
  <path d="M 656.117188 231.929688 L 669.617188 231.929688 L 669.617188 245.429688 L 656.117188 245.429688 Z M 656.117188 231.929688 "/>
</clipPath>
<clipPath id="clip18">
  <path d="M 1232 233 L 1264 233 L 1264 269 L 1232 269 Z M 1232 233 "/>
</clipPath>
<clipPath id="clip19">
  <path d="M 1270.628906 244.15625 L 1253.699219 270.71875 L 1226.503906 253.382812 L 1243.433594 226.820312 Z M 1270.628906 244.15625 "/>
</clipPath>
<clipPath id="clip20">
  <path d="M 1270.746094 243.972656 L 1253.8125 270.535156 L 1226.617188 253.203125 L 1243.550781 226.640625 Z M 1270.746094 243.972656 "/>
</clipPath>
<clipPath id="clip21">
  <path d="M 1321.726562 175.070312 L 1335.226562 175.070312 L 1335.226562 188.570312 L 1321.726562 188.570312 Z M 1321.726562 175.070312 "/>
</clipPath>
<clipPath id="clip22">
  <path d="M 1398.636719 297.992188 L 1412.136719 297.992188 L 1412.136719 311.492188 L 1398.636719 311.492188 Z M 1398.636719 297.992188 "/>
</clipPath>
<clipPath id="clip23">
  <path d="M 1380.5 81.363281 L 1411.785156 81.363281 L 1411.785156 113.613281 L 1380.5 113.613281 Z M 1380.5 81.363281 "/>
</clipPath>
<clipPath id="clip24">
  <path d="M 1198.605469 188.851562 L 1212.105469 188.851562 L 1212.105469 202.351562 L 1198.605469 202.351562 Z M 1198.605469 188.851562 "/>
</clipPath>
<clipPath id="clip25">
  <path d="M 767 575.820312 L 798 575.820312 L 798 608.070312 L 767 608.070312 Z M 767 575.820312 "/>
</clipPath>
<clipPath id="clip26">
  <path d="M 228.550781 556.394531 L 259.835938 556.394531 L 259.835938 588.644531 L 228.550781 588.644531 Z M 228.550781 556.394531 "/>
</clipPath>
<clipPath id="clip27">
  <path d="M 884.359375 514.464844 L 897.859375 514.464844 L 897.859375 527.964844 L 884.359375 527.964844 Z M 884.359375 514.464844 "/>
</clipPath>
<clipPath id="clip28">
  <path d="M 48.652344 556.105469 L 62.152344 556.105469 L 62.152344 569.605469 L 48.652344 569.605469 Z M 48.652344 556.105469 "/>
</clipPath>
<clipPath id="clip29">
  <path d="M 1027.375 582.933594 L 1058.660156 582.933594 L 1058.660156 615.183594 L 1027.375 615.183594 Z M 1027.375 582.933594 "/>
</clipPath>
<clipPath id="clip30">
  <path d="M 44 405.363281 L 75 405.363281 L 75 437.613281 L 44 437.613281 Z M 44 405.363281 "/>
</clipPath>
<clipPath id="clip31">
  <path d="M 138.949219 471.710938 L 152.449219 471.710938 L 152.449219 485.210938 L 138.949219 485.210938 Z M 138.949219 471.710938 "/>
</clipPath>
<clipPath id="clip32">
  <path d="M 870.714844 621.992188 L 884.214844 621.992188 L 884.214844 635.492188 L 870.714844 635.492188 Z M 870.714844 621.992188 "/>
</clipPath>
<clipPath id="clip33">
  <path d="M 402 593.113281 L 432.957031 593.113281 L 432.957031 625.363281 L 402 625.363281 Z M 402 593.113281 "/>
</clipPath>
<clipPath id="clip34">
  <path d="M 519 519 L 552 519 L 552 554 L 519 554 Z M 519 519 "/>
</clipPath>
<clipPath id="clip35">
  <path d="M 556.394531 540.9375 L 528.707031 555.964844 L 513.324219 527.621094 L 541.011719 512.59375 Z M 556.394531 540.9375 "/>
</clipPath>
<clipPath id="clip36">
  <path d="M 556.582031 540.835938 L 528.898438 555.859375 L 513.515625 527.515625 L 541.199219 512.492188 Z M 556.582031 540.835938 "/>
</clipPath>
<clipPath id="clip37">
  <path d="M 578.976562 634.453125 L 592.476562 634.453125 L 592.476562 647.953125 L 578.976562 647.953125 Z M 578.976562 634.453125 "/>
</clipPath>
<clipPath id="clip38">
  <path d="M 357.492188 512.246094 L 370.992188 512.246094 L 370.992188 525.746094 L 357.492188 525.746094 Z M 357.492188 512.246094 "/>
</clipPath>
<clipPath id="clip39">
  <path d="M 684 656.640625 L 715 656.640625 L 715 688.890625 L 684 688.890625 Z M 684 656.640625 "/>
</clipPath>
<clipPath id="clip40">
  <path d="M 1096.789062 499.070312 L 1110.289062 499.070312 L 1110.289062 512.570312 L 1096.789062 512.570312 Z M 1096.789062 499.070312 "/>
</clipPath>
<clipPath id="clip41">
  <path d="M 660.863281 555.929688 L 674.363281 555.929688 L 674.363281 569.429688 L 660.863281 569.429688 Z M 660.863281 555.929688 "/>
</clipPath>
<clipPath id="clip42">
  <path d="M 1237 557 L 1268 557 L 1268 593 L 1237 593 Z M 1237 557 "/>
</clipPath>
<clipPath id="clip43">
  <path d="M 1275.375 568.15625 L 1258.445312 594.71875 L 1231.25 577.382812 L 1248.179688 550.820312 Z M 1275.375 568.15625 "/>
</clipPath>
<clipPath id="clip44">
  <path d="M 1275.492188 567.972656 L 1258.558594 594.535156 L 1231.367188 577.203125 L 1248.296875 550.640625 Z M 1275.492188 567.972656 "/>
</clipPath>
<clipPath id="clip45">
  <path d="M 1326.472656 499.070312 L 1339.972656 499.070312 L 1339.972656 512.570312 L 1326.472656 512.570312 Z M 1326.472656 499.070312 "/>
</clipPath>
<clipPath id="clip46">
  <path d="M 1403.386719 621.992188 L 1416.886719 621.992188 L 1416.886719 635.492188 L 1403.386719 635.492188 Z M 1403.386719 621.992188 "/>
</clipPath>
<clipPath id="clip47">
  <path d="M 1385.246094 405.363281 L 1416.53125 405.363281 L 1416.53125 437.613281 L 1385.246094 437.613281 Z M 1385.246094 405.363281 "/>
</clipPath>
<clipPath id="clip48">
  <path d="M 1203.351562 512.851562 L 1216.851562 512.851562 L 1216.851562 526.351562 L 1203.351562 526.351562 Z M 1203.351562 512.851562 "/>
</clipPath>
</defs>
<g id="surface1">
<g clip-path="url(#clip1)" clip-rule="nonzero">
<path style=" stroke:none;fill-rule:nonzero;fill:rgb(54.508972%,84.709167%,74.119568%);fill-opacity:1;" d="M 775.816406 283.585938 C 776.0625 280.15625 774.941406 276.421875 774.6875 272.769531 C 770.652344 275.71875 769.011719 281.066406 763.644531 282.683594 C 763.542969 279.6875 766.484375 278.105469 768.152344 276.152344 C 769.96875 274.023438 771.484375 271.726562 773.335938 269.84375 C 769.917969 267.554688 764.625 267.136719 762.519531 263.535156 C 766.417969 261.570312 769.972656 265.246094 773.335938 266.011719 C 774.644531 261.496094 772.074219 255.75 772.886719 251.820312 C 778.585938 252.132812 776.851562 259.878906 777.621094 265.113281 C 779.203125 263.679688 780.613281 261.960938 782.351562 260.15625 C 784.113281 258.339844 785.570312 255.9375 787.988281 256.328125 C 788.1875 256.660156 787.261719 258.492188 786.863281 259.03125 C 784.652344 261.992188 780.785156 264.921875 778.746094 268.042969 C 784.019531 269.980469 789.25 271.957031 793.167969 275.25 C 789.730469 278.285156 782.949219 271.804688 778.292969 271.417969 C 778.253906 275.703125 779.988281 279.96875 778.96875 283.808594 C 778.183594 284.253906 776.355469 284.105469 775.816406 283.585938 Z M 775.816406 283.585938 "/>
</g>
<g clip-path="url(#clip2)" clip-rule="nonzero">
<path style=" stroke:none;fill-rule:nonzero;fill:rgb(54.508972%,84.709167%,74.119568%);fill-opacity:1;" d="M 237.527344 264.15625 C 237.773438 260.730469 236.652344 256.996094 236.402344 253.34375 C 232.363281 256.292969 230.726562 261.636719 225.355469 263.257812 C 225.253906 260.261719 228.199219 258.675781 229.867188 256.722656 C 231.679688 254.597656 233.195312 252.296875 235.050781 250.414062 C 231.632812 248.125 226.339844 247.707031 224.230469 244.109375 C 228.128906 242.140625 231.6875 245.816406 235.050781 246.585938 C 236.355469 242.066406 233.789062 236.324219 234.597656 232.394531 C 240.296875 232.707031 238.5625 240.449219 239.332031 245.683594 C 240.914062 244.253906 242.324219 242.53125 244.066406 240.730469 C 245.824219 238.910156 247.28125 236.511719 249.699219 236.902344 C 249.902344 237.234375 248.976562 239.0625 248.574219 239.601562 C 246.363281 242.5625 242.5 245.496094 240.460938 248.613281 C 245.730469 250.550781 250.960938 252.53125 254.882812 255.820312 C 251.441406 258.859375 244.660156 252.378906 240.003906 251.992188 C 239.964844 256.273438 241.703125 260.539062 240.683594 264.378906 C 239.898438 264.824219 238.066406 264.679688 237.527344 264.15625 Z M 237.527344 264.15625 "/>
</g>
<g clip-path="url(#clip3)" clip-rule="nonzero">
<path style=" stroke:none;fill-rule:evenodd;fill:rgb(54.508972%,84.709167%,74.119568%);fill-opacity:1;" d="M 887.015625 202.101562 C 883.421875 205.160156 878.28125 202.039062 879.933594 196.453125 C 880.152344 195.710938 881 195.140625 881.3125 194.335938 C 881.777344 193.144531 881.453125 191.867188 882.175781 191.335938 C 886.625 188.648438 893.796875 190.390625 893.0625 196.101562 C 893 196.585938 892.503906 197.054688 892.371094 197.6875 C 891.871094 200.074219 892.207031 202.421875 890.46875 203.6875 C 888.765625 204.605469 887.371094 203.5625 887.015625 202.101562 Z M 885.460938 198.394531 C 884.800781 198.78125 883.523438 198.535156 883.730469 199.804688 C 884.691406 200.261719 885.605469 199.605469 885.460938 198.394531 Z M 885.460938 198.394531 "/>
</g>
<g clip-path="url(#clip4)" clip-rule="nonzero">
<path style=" stroke:none;fill-rule:evenodd;fill:rgb(54.508972%,84.709167%,74.119568%);fill-opacity:1;" d="M 51.304688 243.742188 C 47.714844 246.804688 42.570312 243.683594 44.222656 238.097656 C 44.441406 237.351562 45.292969 236.78125 45.605469 235.976562 C 46.070312 234.785156 45.746094 233.507812 46.46875 232.976562 C 50.917969 230.292969 58.089844 232.03125 57.351562 237.742188 C 57.289062 238.226562 56.792969 238.695312 56.660156 239.332031 C 56.164062 241.714844 56.5 244.0625 54.761719 245.332031 C 53.058594 246.25 51.664062 245.203125 51.304688 243.742188 Z M 49.75 240.035156 C 49.09375 240.425781 47.816406 240.175781 48.023438 241.449219 C 48.984375 241.902344 49.894531 241.25 49.75 240.035156 Z M 49.75 240.035156 "/>
</g>
<g clip-path="url(#clip5)" clip-rule="nonzero">
<path style=" stroke:none;fill-rule:nonzero;fill:rgb(54.508972%,84.709167%,74.119568%);fill-opacity:1;" d="M 1036.351562 290.695312 C 1036.597656 287.269531 1035.476562 283.535156 1035.222656 279.882812 C 1031.1875 282.832031 1029.546875 288.175781 1024.179688 289.796875 C 1024.078125 286.800781 1027.019531 285.214844 1028.6875 283.261719 C 1030.503906 281.136719 1032.019531 278.835938 1033.875 276.953125 C 1030.453125 274.667969 1025.160156 274.246094 1023.054688 270.648438 C 1026.953125 268.683594 1030.507812 272.355469 1033.875 273.125 C 1035.179688 268.609375 1032.609375 262.863281 1033.421875 258.933594 C 1039.121094 259.246094 1037.386719 266.988281 1038.15625 272.222656 C 1039.738281 270.792969 1041.148438 269.070312 1042.886719 267.269531 C 1044.648438 265.449219 1046.105469 263.050781 1048.523438 263.441406 C 1048.722656 263.773438 1047.796875 265.605469 1047.398438 266.144531 C 1045.1875 269.101562 1041.320312 272.035156 1039.28125 275.15625 C 1044.554688 277.089844 1049.785156 279.070312 1053.703125 282.359375 C 1050.265625 285.398438 1043.484375 278.917969 1038.828125 278.53125 C 1038.789062 282.8125 1040.527344 287.078125 1039.503906 290.921875 C 1038.71875 291.367188 1036.890625 291.21875 1036.351562 290.695312 Z M 1036.351562 290.695312 "/>
</g>
<g clip-path="url(#clip6)" clip-rule="nonzero">
<path style=" stroke:none;fill-rule:nonzero;fill:rgb(54.508972%,84.709167%,74.119568%);fill-opacity:1;" d="M 52.78125 113.125 C 53.027344 109.699219 51.90625 105.964844 51.652344 102.3125 C 47.617188 105.261719 45.976562 110.605469 40.609375 112.226562 C 40.507812 109.230469 43.449219 107.644531 45.117188 105.691406 C 46.933594 103.566406 48.449219 101.265625 50.304688 99.382812 C 46.882812 97.09375 41.589844 96.675781 39.484375 93.078125 C 43.382812 91.109375 46.9375 94.785156 50.304688 95.554688 C 51.609375 91.035156 49.039062 85.292969 49.851562 81.363281 C 55.550781 81.675781 53.816406 89.417969 54.585938 94.652344 C 56.167969 93.222656 57.578125 91.5 59.316406 89.699219 C 61.078125 87.878906 62.535156 85.480469 64.953125 85.871094 C 65.152344 86.203125 64.226562 88.03125 63.828125 88.570312 C 61.617188 91.53125 57.75 94.464844 55.710938 97.582031 C 60.984375 99.519531 66.214844 101.5 70.132812 104.789062 C 66.695312 107.828125 59.914062 101.347656 55.257812 100.960938 C 55.21875 105.242188 56.957031 109.507812 55.933594 113.347656 C 55.148438 113.792969 53.320312 113.648438 52.78125 113.125 Z M 52.78125 113.125 "/>
</g>
<g clip-path="url(#clip7)" clip-rule="nonzero">
<path style=" stroke:none;fill-rule:evenodd;fill:rgb(54.508972%,84.709167%,74.119568%);fill-opacity:1;" d="M 141.605469 159.347656 C 138.011719 162.410156 132.871094 159.289062 134.519531 153.699219 C 134.742188 152.957031 135.589844 152.386719 135.902344 151.582031 C 136.367188 150.390625 136.042969 149.113281 136.765625 148.582031 C 141.214844 145.894531 148.386719 147.636719 147.652344 153.347656 C 147.589844 153.832031 147.09375 154.300781 146.960938 154.9375 C 146.460938 157.320312 146.796875 159.667969 145.058594 160.9375 C 143.355469 161.851562 141.960938 160.808594 141.605469 159.347656 Z M 140.050781 155.640625 C 139.390625 156.027344 138.113281 155.78125 138.320312 157.054688 C 139.28125 157.507812 140.195312 156.851562 140.050781 155.640625 Z M 140.050781 155.640625 "/>
</g>
<g clip-path="url(#clip8)" clip-rule="nonzero">
<path style=" stroke:none;fill-rule:evenodd;fill:rgb(54.508972%,84.709167%,74.119568%);fill-opacity:1;" d="M 873.371094 309.632812 C 869.777344 312.691406 864.636719 309.570312 866.285156 303.984375 C 866.507812 303.242188 867.355469 302.667969 867.667969 301.867188 C 868.132812 300.671875 867.808594 299.394531 868.53125 298.867188 C 872.980469 296.179688 880.152344 297.917969 879.414062 303.628906 C 879.351562 304.113281 878.859375 304.582031 878.726562 305.21875 C 878.226562 307.601562 878.5625 309.953125 876.824219 311.21875 C 875.121094 312.136719 873.726562 311.09375 873.371094 309.632812 Z M 871.816406 305.925781 C 871.15625 306.3125 869.878906 306.0625 870.085938 307.335938 C 871.046875 307.792969 871.960938 307.136719 871.816406 305.925781 Z M 871.816406 305.925781 "/>
</g>
<g clip-path="url(#clip9)" clip-rule="nonzero">
<path style=" stroke:none;fill-rule:nonzero;fill:rgb(54.508972%,84.709167%,74.119568%);fill-opacity:1;" d="M 410.648438 300.875 C 410.894531 297.449219 409.773438 293.714844 409.519531 290.0625 C 405.484375 293.011719 403.847656 298.355469 398.476562 299.976562 C 398.375 296.980469 401.316406 295.394531 402.984375 293.441406 C 404.800781 291.316406 406.316406 289.015625 408.171875 287.132812 C 404.75 284.84375 399.457031 284.425781 397.351562 280.824219 C 401.25 278.859375 404.804688 282.535156 408.171875 283.304688 C 409.476562 278.785156 406.90625 273.042969 407.71875 269.113281 C 413.417969 269.425781 411.683594 277.167969 412.453125 282.402344 C 414.035156 280.96875 415.445312 279.25 417.183594 277.449219 C 418.945312 275.628906 420.402344 273.230469 422.820312 273.621094 C 423.019531 273.953125 422.09375 275.78125 421.695312 276.320312 C 419.484375 279.28125 415.617188 282.214844 413.578125 285.332031 C 418.851562 287.269531 424.082031 289.25 428 292.539062 C 424.5625 295.578125 417.78125 289.097656 413.125 288.710938 C 413.085938 292.992188 414.824219 297.257812 413.800781 301.097656 C 413.015625 301.542969 411.1875 301.398438 410.648438 300.875 Z M 410.648438 300.875 "/>
</g>
<g clip-path="url(#clip10)" clip-rule="nonzero">
<g clip-path="url(#clip11)" clip-rule="nonzero">
<g clip-path="url(#clip12)" clip-rule="nonzero">
<path style=" stroke:none;fill-rule:nonzero;fill:rgb(54.508972%,84.709167%,74.119568%);fill-opacity:1;" d="M 535.980469 224.886719 C 534.558594 221.757812 531.792969 219.007812 529.832031 215.921875 C 527.6875 220.4375 528.800781 225.917969 524.851562 229.902344 C 523.332031 227.316406 525.164062 224.519531 525.699219 222.007812 C 526.28125 219.273438 526.515625 216.53125 527.246094 213.992188 C 523.148438 213.609375 518.296875 215.765625 514.730469 213.609375 C 517.214844 210.023438 522.097656 211.554688 525.417969 210.625 C 524.414062 206.03125 519.414062 202.207031 518.253906 198.367188 C 523.410156 195.921875 525.578125 203.558594 528.753906 207.789062 C 529.460938 205.777344 529.882812 203.59375 530.550781 201.179688 C 531.226562 198.742188 531.363281 195.9375 533.675781 195.125 C 534.011719 195.320312 534.070312 197.371094 533.976562 198.039062 C 533.445312 201.695312 531.445312 206.113281 531.140625 209.828125 C 536.699219 209.015625 542.238281 208.261719 547.253906 209.285156 C 545.683594 213.59375 536.628906 211.132812 532.355469 213.011719 C 534.363281 216.796875 537.921875 219.71875 538.859375 223.578125 C 538.378906 224.34375 536.699219 225.089844 535.980469 224.886719 Z M 535.980469 224.886719 "/>
</g>
</g>
</g>
<g clip-path="url(#clip13)" clip-rule="nonzero">
<path style=" stroke:none;fill-rule:evenodd;fill:rgb(54.508972%,84.709167%,74.119568%);fill-opacity:1;" d="M 581.632812 322.09375 C 578.039062 325.152344 572.898438 322.03125 574.546875 316.445312 C 574.769531 315.703125 575.617188 315.128906 575.929688 314.328125 C 576.394531 313.132812 576.070312 311.855469 576.792969 311.328125 C 581.242188 308.640625 588.414062 310.378906 587.679688 316.09375 C 587.617188 316.574219 587.121094 317.046875 586.988281 317.679688 C 586.488281 320.0625 586.824219 322.414062 585.085938 323.679688 C 583.382812 324.597656 581.988281 323.554688 581.632812 322.09375 Z M 580.078125 318.386719 C 579.417969 318.773438 578.140625 318.527344 578.347656 319.796875 C 579.308594 320.253906 580.222656 319.597656 580.078125 318.386719 Z M 580.078125 318.386719 "/>
</g>
<g clip-path="url(#clip14)" clip-rule="nonzero">
<path style=" stroke:none;fill-rule:evenodd;fill:rgb(54.508972%,84.709167%,74.119568%);fill-opacity:1;" d="M 360.144531 199.886719 C 356.554688 202.945312 351.410156 199.824219 353.0625 194.238281 C 353.28125 193.496094 354.132812 192.921875 354.445312 192.121094 C 354.910156 190.925781 354.582031 189.648438 355.308594 189.121094 C 359.757812 186.433594 366.929688 188.171875 366.191406 193.886719 C 366.128906 194.367188 365.632812 194.839844 365.5 195.472656 C 365.003906 197.855469 365.339844 200.207031 363.601562 201.472656 C 361.898438 202.390625 360.5 201.347656 360.144531 199.886719 Z M 358.589844 196.179688 C 357.933594 196.566406 356.652344 196.316406 356.863281 197.589844 C 357.820312 198.046875 358.734375 197.390625 358.589844 196.179688 Z M 358.589844 196.179688 "/>
</g>
<g clip-path="url(#clip15)" clip-rule="nonzero">
<path style=" stroke:none;fill-rule:nonzero;fill:rgb(54.508972%,84.709167%,74.119568%);fill-opacity:1;" d="M 692.796875 364.402344 C 693.042969 360.976562 691.921875 357.242188 691.671875 353.589844 C 687.632812 356.539062 685.996094 361.886719 680.625 363.503906 C 680.523438 360.507812 683.46875 358.921875 685.136719 356.972656 C 686.949219 354.84375 688.464844 352.542969 690.320312 350.664062 C 686.902344 348.375 681.609375 347.957031 679.5 344.355469 C 683.398438 342.390625 686.957031 346.066406 690.320312 346.832031 C 691.625 342.316406 689.058594 336.570312 689.867188 332.640625 C 695.566406 332.953125 693.832031 340.695312 694.601562 345.933594 C 696.183594 344.5 697.597656 342.777344 699.335938 340.976562 C 701.09375 339.15625 702.550781 336.757812 704.96875 337.148438 C 705.171875 337.480469 704.246094 339.3125 703.84375 339.851562 C 701.632812 342.8125 697.769531 345.742188 695.730469 348.863281 C 701 350.800781 706.230469 352.777344 710.152344 356.070312 C 706.714844 359.105469 699.929688 352.625 695.273438 352.238281 C 695.234375 356.523438 696.972656 360.789062 695.953125 364.628906 C 695.167969 365.074219 693.335938 364.925781 692.796875 364.402344 Z M 692.796875 364.402344 "/>
</g>
<g clip-path="url(#clip16)" clip-rule="nonzero">
<path style=" stroke:none;fill-rule:evenodd;fill:rgb(54.508972%,84.709167%,74.119568%);fill-opacity:1;" d="M 1099.445312 186.707031 C 1095.855469 189.769531 1090.710938 186.648438 1092.363281 181.0625 C 1092.582031 180.316406 1093.433594 179.746094 1093.742188 178.945312 C 1094.207031 177.75 1093.882812 176.472656 1094.609375 175.945312 C 1099.054688 173.257812 1106.226562 174.996094 1105.492188 180.707031 C 1105.429688 181.191406 1104.933594 181.660156 1104.800781 182.296875 C 1104.304688 184.679688 1104.640625 187.03125 1102.902344 188.296875 C 1101.199219 189.214844 1099.800781 188.171875 1099.445312 186.707031 Z M 1097.890625 183.003906 C 1097.230469 183.390625 1095.953125 183.140625 1096.164062 184.414062 C 1097.121094 184.867188 1098.035156 184.214844 1097.890625 183.003906 Z M 1097.890625 183.003906 "/>
</g>
<g clip-path="url(#clip17)" clip-rule="nonzero">
<path style=" stroke:none;fill-rule:evenodd;fill:rgb(54.508972%,84.709167%,74.119568%);fill-opacity:1;" d="M 663.519531 243.566406 C 659.925781 246.628906 654.785156 243.507812 656.433594 237.921875 C 656.65625 237.175781 657.503906 236.605469 657.816406 235.804688 C 658.28125 234.609375 657.957031 233.332031 658.679688 232.804688 C 663.128906 230.117188 670.300781 231.855469 669.566406 237.566406 C 669.503906 238.050781 669.007812 238.519531 668.875 239.15625 C 668.375 241.539062 668.710938 243.890625 666.972656 245.15625 C 665.269531 246.074219 663.875 245.03125 663.519531 243.566406 Z M 661.964844 239.863281 C 661.304688 240.25 660.027344 240 660.234375 241.273438 C 661.195312 241.726562 662.109375 241.074219 661.964844 239.863281 Z M 661.964844 239.863281 "/>
</g>
<g clip-path="url(#clip18)" clip-rule="nonzero">
<g clip-path="url(#clip19)" clip-rule="nonzero">
<g clip-path="url(#clip20)" clip-rule="nonzero">
<path style=" stroke:none;fill-rule:nonzero;fill:rgb(54.508972%,84.709167%,74.119568%);fill-opacity:1;" d="M 1260.777344 258.703125 C 1258.019531 256.652344 1254.269531 255.589844 1251.054688 253.839844 C 1251.371094 258.832031 1255 263.085938 1253.476562 268.480469 C 1250.894531 266.957031 1251.140625 263.625 1250.390625 261.167969 C 1249.574219 258.496094 1248.449219 255.980469 1247.859375 253.40625 C 1244.089844 255.058594 1240.894531 259.296875 1236.726562 259.136719 C 1237.160156 254.796875 1242.175781 253.769531 1244.628906 251.347656 C 1241.523438 247.816406 1235.296875 246.894531 1232.421875 244.097656 C 1235.746094 239.460938 1241.34375 245.085938 1246.171875 247.25 C 1245.816406 245.148438 1245.121094 243.03125 1244.535156 240.597656 C 1243.949219 238.136719 1242.707031 235.617188 1244.335938 233.789062 C 1244.726562 233.796875 1245.773438 235.5625 1246.011719 236.191406 C 1247.320312 239.644531 1247.714844 244.480469 1249.25 247.875 C 1253.714844 244.472656 1258.195312 241.125 1263.078125 239.589844 C 1263.789062 244.121094 1254.679688 246.355469 1251.851562 250.074219 C 1255.441406 252.410156 1259.972656 253.238281 1262.664062 256.164062 C 1262.617188 257.0625 1261.507812 258.527344 1260.777344 258.703125 Z M 1260.777344 258.703125 "/>
</g>
</g>
</g>
<g clip-path="url(#clip21)" clip-rule="nonzero">
<path style=" stroke:none;fill-rule:evenodd;fill:rgb(54.508972%,84.709167%,74.119568%);fill-opacity:1;" d="M 1329.128906 186.707031 C 1325.535156 189.769531 1320.394531 186.648438 1322.046875 181.0625 C 1322.265625 180.316406 1323.117188 179.746094 1323.425781 178.945312 C 1323.890625 177.75 1323.566406 176.472656 1324.292969 175.945312 C 1328.738281 173.257812 1335.910156 174.996094 1335.175781 180.707031 C 1335.113281 181.191406 1334.617188 181.660156 1334.484375 182.296875 C 1333.988281 184.679688 1334.324219 187.03125 1332.582031 188.296875 C 1330.878906 189.214844 1329.484375 188.171875 1329.128906 186.707031 Z M 1327.574219 183.003906 C 1326.914062 183.390625 1325.636719 183.140625 1325.847656 184.414062 C 1326.804688 184.867188 1327.71875 184.214844 1327.574219 183.003906 Z M 1327.574219 183.003906 "/>
</g>
<g clip-path="url(#clip22)" clip-rule="nonzero">
<path style=" stroke:none;fill-rule:evenodd;fill:rgb(54.508972%,84.709167%,74.119568%);fill-opacity:1;" d="M 1406.039062 309.632812 C 1402.449219 312.691406 1397.304688 309.570312 1398.957031 303.984375 C 1399.175781 303.242188 1400.027344 302.667969 1400.335938 301.867188 C 1400.800781 300.671875 1400.476562 299.394531 1401.203125 298.867188 C 1405.648438 296.179688 1412.820312 297.917969 1412.085938 303.628906 C 1412.023438 304.113281 1411.527344 304.582031 1411.394531 305.21875 C 1410.898438 307.601562 1411.234375 309.953125 1409.496094 311.21875 C 1407.792969 312.136719 1406.394531 311.09375 1406.039062 309.632812 Z M 1404.484375 305.925781 C 1403.824219 306.3125 1402.546875 306.0625 1402.757812 307.335938 C 1403.714844 307.792969 1404.628906 307.136719 1404.484375 305.925781 Z M 1404.484375 305.925781 "/>
</g>
<g clip-path="url(#clip23)" clip-rule="nonzero">
<path style=" stroke:none;fill-rule:nonzero;fill:rgb(54.508972%,84.709167%,74.119568%);fill-opacity:1;" d="M 1394.222656 113.125 C 1394.46875 109.699219 1393.347656 105.964844 1393.09375 102.3125 C 1389.058594 105.261719 1387.421875 110.605469 1382.050781 112.226562 C 1381.949219 109.230469 1384.894531 107.644531 1386.5625 105.691406 C 1388.375 103.566406 1389.890625 101.265625 1391.746094 99.382812 C 1388.324219 97.09375 1383.035156 96.675781 1380.925781 93.078125 C 1384.824219 91.109375 1388.382812 94.785156 1391.746094 95.554688 C 1393.050781 91.035156 1390.484375 85.292969 1391.292969 81.363281 C 1396.992188 81.675781 1395.257812 89.417969 1396.027344 94.652344 C 1397.609375 93.222656 1399.019531 91.5 1400.761719 89.699219 C 1402.519531 87.878906 1403.976562 85.480469 1406.394531 85.871094 C 1406.597656 86.203125 1405.671875 88.03125 1405.269531 88.570312 C 1403.058594 91.53125 1399.195312 94.464844 1397.152344 97.582031 C 1402.425781 99.519531 1407.65625 101.5 1411.578125 104.789062 C 1408.136719 107.828125 1401.355469 101.347656 1396.699219 100.960938 C 1396.660156 105.242188 1398.398438 109.507812 1397.378906 113.347656 C 1396.59375 113.792969 1394.761719 113.648438 1394.222656 113.125 Z M 1394.222656 113.125 "/>
</g>
<g clip-path="url(#clip24)" clip-rule="nonzero">
<path style=" stroke:none;fill-rule:evenodd;fill:rgb(54.508972%,84.709167%,74.119568%);fill-opacity:1;" d="M 1206.003906 200.492188 C 1202.414062 203.550781 1197.269531 200.429688 1198.921875 194.84375 C 1199.140625 194.101562 1199.992188 193.527344 1200.304688 192.726562 C 1200.769531 191.53125 1200.445312 190.253906 1201.167969 189.726562 C 1205.617188 187.039062 1212.789062 188.777344 1212.050781 194.492188 C 1211.988281 194.972656 1211.492188 195.445312 1211.359375 196.078125 C 1210.863281 198.460938 1211.199219 200.8125 1209.460938 202.078125 C 1207.757812 202.996094 1206.363281 201.953125 1206.003906 200.492188 Z M 1204.449219 196.785156 C 1203.792969 197.171875 1202.515625 196.925781 1202.722656 198.195312 C 1203.683594 198.652344 1204.59375 197.996094 1204.449219 196.785156 Z M 1204.449219 196.785156 "/>
</g>
<g clip-path="url(#clip25)" clip-rule="nonzero">
<path style=" stroke:none;fill-rule:nonzero;fill:rgb(54.508972%,84.709167%,74.119568%);fill-opacity:1;" d="M 780.5625 607.585938 C 780.808594 604.15625 779.6875 600.421875 779.433594 596.769531 C 775.398438 599.71875 773.761719 605.066406 768.390625 606.683594 C 768.289062 603.6875 771.230469 602.105469 772.898438 600.152344 C 774.714844 598.023438 776.230469 595.726562 778.085938 593.84375 C 774.664062 591.554688 769.371094 591.136719 767.265625 587.535156 C 771.164062 585.570312 774.722656 589.246094 778.085938 590.011719 C 779.390625 585.496094 776.824219 579.75 777.632812 575.820312 C 783.332031 576.132812 781.597656 583.878906 782.367188 589.113281 C 783.949219 587.679688 785.359375 585.960938 787.097656 584.15625 C 788.859375 582.339844 790.316406 579.9375 792.734375 580.328125 C 792.9375 580.660156 792.011719 582.492188 791.609375 583.03125 C 789.398438 585.992188 785.53125 588.921875 783.492188 592.042969 C 788.765625 593.980469 793.996094 595.957031 797.914062 599.25 C 794.476562 602.285156 787.695312 595.804688 783.039062 595.417969 C 783 599.703125 784.738281 603.96875 783.71875 607.808594 C 782.933594 608.253906 781.101562 608.105469 780.5625 607.585938 Z M 780.5625 607.585938 "/>
</g>
<g clip-path="url(#clip26)" clip-rule="nonzero">
<path style=" stroke:none;fill-rule:nonzero;fill:rgb(54.508972%,84.709167%,74.119568%);fill-opacity:1;" d="M 242.273438 588.15625 C 242.519531 584.730469 241.402344 580.996094 241.148438 577.34375 C 237.109375 580.292969 235.472656 585.636719 230.105469 587.257812 C 230 584.261719 232.945312 582.675781 234.613281 580.722656 C 236.425781 578.597656 237.941406 576.296875 239.796875 574.414062 C 236.378906 572.125 231.085938 571.707031 228.976562 568.109375 C 232.875 566.140625 236.433594 569.816406 239.796875 570.585938 C 241.101562 566.066406 238.535156 560.324219 239.347656 556.394531 C 245.042969 556.707031 243.308594 564.449219 244.078125 569.683594 C 245.660156 568.253906 247.074219 566.53125 248.8125 564.730469 C 250.570312 562.910156 252.027344 560.511719 254.445312 560.902344 C 254.648438 561.234375 253.722656 563.0625 253.320312 563.601562 C 251.113281 566.5625 247.246094 569.496094 245.207031 572.613281 C 250.476562 574.550781 255.707031 576.53125 259.628906 579.820312 C 256.191406 582.859375 249.40625 576.378906 244.753906 575.992188 C 244.710938 580.273438 246.449219 584.539062 245.429688 588.378906 C 244.644531 588.824219 242.8125 588.679688 242.273438 588.15625 Z M 242.273438 588.15625 "/>
</g>
<g clip-path="url(#clip27)" clip-rule="nonzero">
<path style=" stroke:none;fill-rule:evenodd;fill:rgb(54.508972%,84.709167%,74.119568%);fill-opacity:1;" d="M 891.761719 526.101562 C 888.167969 529.160156 883.027344 526.039062 884.679688 520.453125 C 884.898438 519.710938 885.75 519.140625 886.058594 518.335938 C 886.523438 517.144531 886.199219 515.867188 886.925781 515.335938 C 891.371094 512.648438 898.542969 514.390625 897.808594 520.101562 C 897.746094 520.585938 897.25 521.054688 897.117188 521.6875 C 896.621094 524.074219 896.957031 526.421875 895.214844 527.6875 C 893.511719 528.605469 892.117188 527.5625 891.761719 526.101562 Z M 890.207031 522.394531 C 889.546875 522.78125 888.269531 522.535156 888.480469 523.804688 C 889.4375 524.261719 890.351562 523.605469 890.207031 522.394531 Z M 890.207031 522.394531 "/>
</g>
<g clip-path="url(#clip28)" clip-rule="nonzero">
<path style=" stroke:none;fill-rule:evenodd;fill:rgb(54.508972%,84.709167%,74.119568%);fill-opacity:1;" d="M 56.050781 567.742188 C 52.460938 570.804688 47.320312 567.683594 48.96875 562.097656 C 49.191406 561.351562 50.039062 560.78125 50.351562 559.976562 C 50.816406 558.785156 50.492188 557.507812 51.214844 556.976562 C 55.664062 554.292969 62.835938 556.03125 62.097656 561.742188 C 62.035156 562.226562 61.539062 562.695312 61.40625 563.332031 C 60.910156 565.714844 61.246094 568.0625 59.507812 569.332031 C 57.804688 570.25 56.410156 569.203125 56.050781 567.742188 Z M 54.496094 564.035156 C 53.839844 564.425781 52.5625 564.175781 52.769531 565.449219 C 53.730469 565.902344 54.640625 565.25 54.496094 564.035156 Z M 54.496094 564.035156 "/>
</g>
<g clip-path="url(#clip29)" clip-rule="nonzero">
<path style=" stroke:none;fill-rule:nonzero;fill:rgb(54.508972%,84.709167%,74.119568%);fill-opacity:1;" d="M 1041.097656 614.695312 C 1041.34375 611.269531 1040.222656 607.535156 1039.96875 603.882812 C 1035.933594 606.832031 1034.296875 612.175781 1028.925781 613.796875 C 1028.824219 610.800781 1031.765625 609.214844 1033.433594 607.261719 C 1035.25 605.136719 1036.765625 602.835938 1038.621094 600.953125 C 1035.199219 598.667969 1029.90625 598.246094 1027.800781 594.648438 C 1031.699219 592.683594 1035.257812 596.355469 1038.621094 597.125 C 1039.925781 592.609375 1037.359375 586.863281 1038.167969 582.933594 C 1043.867188 583.246094 1042.132812 590.988281 1042.902344 596.222656 C 1044.484375 594.792969 1045.894531 593.070312 1047.632812 591.269531 C 1049.394531 589.449219 1050.851562 587.050781 1053.269531 587.441406 C 1053.472656 587.773438 1052.546875 589.605469 1052.144531 590.144531 C 1049.933594 593.101562 1046.066406 596.035156 1044.027344 599.15625 C 1049.300781 601.089844 1054.53125 603.070312 1058.449219 606.359375 C 1055.011719 609.398438 1048.230469 602.917969 1043.574219 602.53125 C 1043.535156 606.8125 1045.273438 611.078125 1044.253906 614.921875 C 1043.46875 615.367188 1041.636719 615.21875 1041.097656 614.695312 Z M 1041.097656 614.695312 "/>
</g>
<g clip-path="url(#clip30)" clip-rule="nonzero">
<path style=" stroke:none;fill-rule:nonzero;fill:rgb(54.508972%,84.709167%,74.119568%);fill-opacity:1;" d="M 57.527344 437.125 C 57.773438 433.699219 56.652344 429.964844 56.398438 426.3125 C 52.363281 429.261719 50.726562 434.605469 45.355469 436.226562 C 45.253906 433.230469 48.195312 431.644531 49.863281 429.691406 C 51.679688 427.566406 53.195312 425.265625 55.050781 423.382812 C 51.628906 421.09375 46.335938 420.675781 44.230469 417.078125 C 48.128906 415.109375 51.6875 418.785156 55.050781 419.554688 C 56.355469 415.035156 53.789062 409.292969 54.597656 405.363281 C 60.296875 405.675781 58.5625 413.417969 59.332031 418.652344 C 60.914062 417.222656 62.324219 415.5 64.0625 413.699219 C 65.824219 411.878906 67.28125 409.480469 69.699219 409.871094 C 69.902344 410.203125 68.976562 412.03125 68.574219 412.570312 C 66.363281 415.53125 62.5 418.464844 60.457031 421.582031 C 65.730469 423.519531 70.960938 425.5 74.878906 428.789062 C 71.441406 431.828125 64.660156 425.347656 60.003906 424.960938 C 59.964844 429.242188 61.703125 433.507812 60.683594 437.347656 C 59.898438 437.792969 58.066406 437.648438 57.527344 437.125 Z M 57.527344 437.125 "/>
</g>
<g clip-path="url(#clip31)" clip-rule="nonzero">
<path style=" stroke:none;fill-rule:evenodd;fill:rgb(54.508972%,84.709167%,74.119568%);fill-opacity:1;" d="M 146.351562 483.347656 C 142.757812 486.410156 137.617188 483.289062 139.269531 477.699219 C 139.488281 476.957031 140.335938 476.386719 140.648438 475.582031 C 141.113281 474.390625 140.789062 473.113281 141.511719 472.582031 C 145.960938 469.894531 153.132812 471.636719 152.398438 477.347656 C 152.335938 477.832031 151.839844 478.300781 151.707031 478.9375 C 151.210938 481.320312 151.542969 483.667969 149.804688 484.9375 C 148.101562 485.851562 146.707031 484.808594 146.351562 483.347656 Z M 144.796875 479.640625 C 144.136719 480.027344 142.859375 479.78125 143.070312 481.054688 C 144.027344 481.507812 144.941406 480.851562 144.796875 479.640625 Z M 144.796875 479.640625 "/>
</g>
<g clip-path="url(#clip32)" clip-rule="nonzero">
<path style=" stroke:none;fill-rule:evenodd;fill:rgb(54.508972%,84.709167%,74.119568%);fill-opacity:1;" d="M 878.117188 633.632812 C 874.523438 636.691406 869.382812 633.570312 871.03125 627.984375 C 871.253906 627.242188 872.101562 626.667969 872.414062 625.867188 C 872.878906 624.671875 872.554688 623.394531 873.277344 622.867188 C 877.726562 620.179688 884.898438 621.917969 884.164062 627.628906 C 884.101562 628.113281 883.605469 628.582031 883.472656 629.21875 C 882.972656 631.601562 883.308594 633.953125 881.570312 635.21875 C 879.867188 636.136719 878.472656 635.09375 878.117188 633.632812 Z M 876.5625 629.925781 C 875.902344 630.3125 874.625 630.0625 874.832031 631.335938 C 875.792969 631.792969 876.707031 631.136719 876.5625 629.925781 Z M 876.5625 629.925781 "/>
</g>
<g clip-path="url(#clip33)" clip-rule="nonzero">
<path style=" stroke:none;fill-rule:nonzero;fill:rgb(54.508972%,84.709167%,74.119568%);fill-opacity:1;" d="M 415.394531 624.875 C 415.640625 621.449219 414.519531 617.714844 414.265625 614.0625 C 410.230469 617.011719 408.59375 622.355469 403.222656 623.976562 C 403.121094 620.980469 406.0625 619.394531 407.730469 617.441406 C 409.546875 615.316406 411.0625 613.015625 412.917969 611.132812 C 409.496094 608.84375 404.207031 608.425781 402.097656 604.824219 C 405.996094 602.859375 409.554688 606.535156 412.917969 607.304688 C 414.222656 602.785156 411.65625 597.042969 412.464844 593.113281 C 418.164062 593.425781 416.429688 601.167969 417.199219 606.402344 C 418.78125 604.96875 420.191406 603.25 421.933594 601.449219 C 423.691406 599.628906 425.148438 597.230469 427.566406 597.621094 C 427.769531 597.953125 426.84375 599.78125 426.441406 600.320312 C 424.230469 603.28125 420.367188 606.214844 418.324219 609.332031 C 423.597656 611.269531 428.828125 613.25 432.746094 616.539062 C 429.308594 619.578125 422.527344 613.097656 417.871094 612.710938 C 417.832031 616.992188 419.570312 621.257812 418.550781 625.097656 C 417.765625 625.542969 415.933594 625.398438 415.394531 624.875 Z M 415.394531 624.875 "/>
</g>
<g clip-path="url(#clip34)" clip-rule="nonzero">
<g clip-path="url(#clip35)" clip-rule="nonzero">
<g clip-path="url(#clip36)" clip-rule="nonzero">
<path style=" stroke:none;fill-rule:nonzero;fill:rgb(54.508972%,84.709167%,74.119568%);fill-opacity:1;" d="M 540.726562 548.886719 C 539.308594 545.757812 536.542969 543.007812 534.578125 539.921875 C 532.433594 544.4375 533.546875 549.917969 529.597656 553.902344 C 528.078125 551.316406 529.910156 548.519531 530.445312 546.007812 C 531.027344 543.273438 531.261719 540.53125 531.992188 537.992188 C 527.898438 537.609375 523.046875 539.765625 519.476562 537.609375 C 521.964844 534.023438 526.84375 535.554688 530.167969 534.625 C 529.160156 530.03125 524.160156 526.207031 523 522.367188 C 528.15625 519.921875 530.328125 527.558594 533.5 531.789062 C 534.207031 529.777344 534.628906 527.59375 535.296875 525.179688 C 535.976562 522.742188 536.109375 519.9375 538.421875 519.125 C 538.757812 519.320312 538.816406 521.371094 538.722656 522.039062 C 538.191406 525.695312 536.191406 530.113281 535.886719 533.828125 C 541.445312 533.015625 546.984375 532.261719 552 533.285156 C 550.429688 537.59375 541.375 535.132812 537.101562 537.011719 C 539.109375 540.796875 542.667969 543.71875 543.605469 547.578125 C 543.128906 548.34375 541.449219 549.089844 540.726562 548.886719 Z M 540.726562 548.886719 "/>
</g>
</g>
</g>
<g clip-path="url(#clip37)" clip-rule="nonzero">
<path style=" stroke:none;fill-rule:evenodd;fill:rgb(54.508972%,84.709167%,74.119568%);fill-opacity:1;" d="M 586.378906 646.09375 C 582.785156 649.152344 577.644531 646.03125 579.296875 640.445312 C 579.515625 639.703125 580.363281 639.128906 580.675781 638.328125 C 581.140625 637.132812 580.816406 635.855469 581.539062 635.328125 C 585.988281 632.640625 593.160156 634.378906 592.425781 640.09375 C 592.363281 640.574219 591.867188 641.046875 591.734375 641.679688 C 591.238281 644.0625 591.570312 646.414062 589.832031 647.679688 C 588.128906 648.597656 586.734375 647.554688 586.378906 646.09375 Z M 584.824219 642.386719 C 584.164062 642.773438 582.886719 642.527344 583.097656 643.796875 C 584.054688 644.253906 584.96875 643.597656 584.824219 642.386719 Z M 584.824219 642.386719 "/>
</g>
<g clip-path="url(#clip38)" clip-rule="nonzero">
<path style=" stroke:none;fill-rule:evenodd;fill:rgb(54.508972%,84.709167%,74.119568%);fill-opacity:1;" d="M 364.890625 523.886719 C 361.300781 526.945312 356.15625 523.824219 357.808594 518.238281 C 358.027344 517.496094 358.878906 516.921875 359.191406 516.121094 C 359.65625 514.925781 359.332031 513.648438 360.054688 513.121094 C 364.503906 510.433594 371.675781 512.171875 370.9375 517.886719 C 370.875 518.367188 370.378906 518.839844 370.246094 519.472656 C 369.75 521.855469 370.085938 524.207031 368.347656 525.472656 C 366.644531 526.390625 365.246094 525.347656 364.890625 523.886719 Z M 363.335938 520.179688 C 362.679688 520.566406 361.402344 520.316406 361.609375 521.589844 C 362.570312 522.046875 363.480469 521.390625 363.335938 520.179688 Z M 363.335938 520.179688 "/>
</g>
<g clip-path="url(#clip39)" clip-rule="nonzero">
<path style=" stroke:none;fill-rule:nonzero;fill:rgb(54.508972%,84.709167%,74.119568%);fill-opacity:1;" d="M 697.542969 688.402344 C 697.789062 684.976562 696.671875 681.242188 696.417969 677.589844 C 692.378906 680.539062 690.742188 685.886719 685.375 687.503906 C 685.269531 684.507812 688.214844 682.921875 689.882812 680.972656 C 691.695312 678.84375 693.210938 676.542969 695.066406 674.664062 C 691.648438 672.375 686.355469 671.957031 684.246094 668.355469 C 688.144531 666.390625 691.703125 670.066406 695.066406 670.832031 C 696.371094 666.316406 693.804688 660.570312 694.617188 656.640625 C 700.3125 656.953125 698.578125 664.695312 699.347656 669.933594 C 700.933594 668.5 702.34375 666.777344 704.082031 664.976562 C 705.839844 663.15625 707.296875 660.757812 709.714844 661.148438 C 709.917969 661.480469 708.992188 663.3125 708.589844 663.851562 C 706.382812 666.8125 702.515625 669.742188 700.476562 672.863281 C 705.746094 674.800781 710.976562 676.777344 714.898438 680.070312 C 711.460938 683.105469 704.675781 676.625 700.023438 676.238281 C 699.980469 680.523438 701.71875 684.789062 700.699219 688.628906 C 699.914062 689.074219 698.082031 688.925781 697.542969 688.402344 Z M 697.542969 688.402344 "/>
</g>
<g clip-path="url(#clip40)" clip-rule="nonzero">
<path style=" stroke:none;fill-rule:evenodd;fill:rgb(54.508972%,84.709167%,74.119568%);fill-opacity:1;" d="M 1104.191406 510.707031 C 1100.601562 513.769531 1095.457031 510.648438 1097.109375 505.0625 C 1097.328125 504.316406 1098.179688 503.746094 1098.492188 502.945312 C 1098.953125 501.75 1098.628906 500.472656 1099.355469 499.945312 C 1103.800781 497.257812 1110.972656 498.996094 1110.238281 504.707031 C 1110.175781 505.191406 1109.679688 505.660156 1109.546875 506.296875 C 1109.050781 508.679688 1109.386719 511.03125 1107.648438 512.296875 C 1105.945312 513.214844 1104.546875 512.171875 1104.191406 510.707031 Z M 1102.636719 507.003906 C 1101.980469 507.390625 1100.699219 507.140625 1100.910156 508.414062 C 1101.867188 508.867188 1102.78125 508.214844 1102.636719 507.003906 Z M 1102.636719 507.003906 "/>
</g>
<g clip-path="url(#clip41)" clip-rule="nonzero">
<path style=" stroke:none;fill-rule:evenodd;fill:rgb(54.508972%,84.709167%,74.119568%);fill-opacity:1;" d="M 668.265625 567.566406 C 664.671875 570.628906 659.53125 567.507812 661.183594 561.921875 C 661.402344 561.175781 662.25 560.605469 662.5625 559.804688 C 663.027344 558.609375 662.703125 557.332031 663.425781 556.804688 C 667.875 554.117188 675.046875 555.855469 674.3125 561.566406 C 674.25 562.050781 673.753906 562.519531 673.621094 563.15625 C 673.125 565.539062 673.457031 567.890625 671.71875 569.15625 C 670.015625 570.074219 668.621094 569.03125 668.265625 567.566406 Z M 666.710938 563.863281 C 666.050781 564.25 664.773438 564 664.984375 565.273438 C 665.941406 565.726562 666.855469 565.074219 666.710938 563.863281 Z M 666.710938 563.863281 "/>
</g>
<g clip-path="url(#clip42)" clip-rule="nonzero">
<g clip-path="url(#clip43)" clip-rule="nonzero">
<g clip-path="url(#clip44)" clip-rule="nonzero">
<path style=" stroke:none;fill-rule:nonzero;fill:rgb(54.508972%,84.709167%,74.119568%);fill-opacity:1;" d="M 1265.523438 582.703125 C 1262.769531 580.652344 1259.015625 579.589844 1255.800781 577.839844 C 1256.117188 582.832031 1259.746094 587.085938 1258.222656 592.480469 C 1255.640625 590.957031 1255.886719 587.625 1255.136719 585.167969 C 1254.320312 582.496094 1253.195312 579.980469 1252.605469 577.40625 C 1248.839844 579.058594 1245.640625 583.296875 1241.472656 583.136719 C 1241.910156 578.796875 1246.921875 577.769531 1249.375 575.347656 C 1246.269531 571.816406 1240.042969 570.894531 1237.167969 568.097656 C 1240.492188 563.460938 1246.089844 569.085938 1250.917969 571.25 C 1250.5625 569.148438 1249.867188 567.03125 1249.285156 564.597656 C 1248.695312 562.136719 1247.457031 559.617188 1249.082031 557.789062 C 1249.472656 557.796875 1250.519531 559.5625 1250.757812 560.191406 C 1252.066406 563.644531 1252.460938 568.480469 1253.996094 571.875 C 1258.460938 568.472656 1262.941406 565.125 1267.824219 563.589844 C 1268.535156 568.121094 1259.425781 570.355469 1256.597656 574.074219 C 1260.1875 576.410156 1264.71875 577.238281 1267.410156 580.164062 C 1267.363281 581.0625 1266.253906 582.527344 1265.523438 582.703125 Z M 1265.523438 582.703125 "/>
</g>
</g>
</g>
<g clip-path="url(#clip45)" clip-rule="nonzero">
<path style=" stroke:none;fill-rule:evenodd;fill:rgb(54.508972%,84.709167%,74.119568%);fill-opacity:1;" d="M 1333.875 510.707031 C 1330.285156 513.769531 1325.140625 510.648438 1326.792969 505.0625 C 1327.011719 504.316406 1327.863281 503.746094 1328.171875 502.945312 C 1328.636719 501.75 1328.3125 500.472656 1329.039062 499.945312 C 1333.484375 497.257812 1340.65625 498.996094 1339.921875 504.707031 C 1339.859375 505.191406 1339.363281 505.660156 1339.230469 506.296875 C 1338.734375 508.679688 1339.070312 511.03125 1337.332031 512.296875 C 1335.628906 513.214844 1334.230469 512.171875 1333.875 510.707031 Z M 1332.320312 507.003906 C 1331.660156 507.390625 1330.382812 507.140625 1330.59375 508.414062 C 1331.550781 508.867188 1332.464844 508.214844 1332.320312 507.003906 Z M 1332.320312 507.003906 "/>
</g>
<g clip-path="url(#clip46)" clip-rule="nonzero">
<path style=" stroke:none;fill-rule:evenodd;fill:rgb(54.508972%,84.709167%,74.119568%);fill-opacity:1;" d="M 1410.785156 633.632812 C 1407.195312 636.691406 1402.050781 633.570312 1403.703125 627.984375 C 1403.921875 627.242188 1404.773438 626.667969 1405.085938 625.867188 C 1405.546875 624.671875 1405.222656 623.394531 1405.949219 622.867188 C 1410.394531 620.179688 1417.570312 621.917969 1416.832031 627.628906 C 1416.769531 628.113281 1416.273438 628.582031 1416.140625 629.21875 C 1415.644531 631.601562 1415.980469 633.953125 1414.242188 635.21875 C 1412.539062 636.136719 1411.140625 635.09375 1410.785156 633.632812 Z M 1409.230469 629.925781 C 1408.574219 630.3125 1407.292969 630.0625 1407.503906 631.335938 C 1408.460938 631.792969 1409.375 631.136719 1409.230469 629.925781 Z M 1409.230469 629.925781 "/>
</g>
<g clip-path="url(#clip47)" clip-rule="nonzero">
<path style=" stroke:none;fill-rule:nonzero;fill:rgb(54.508972%,84.709167%,74.119568%);fill-opacity:1;" d="M 1398.96875 437.125 C 1399.214844 433.699219 1398.09375 429.964844 1397.84375 426.3125 C 1393.804688 429.261719 1392.167969 434.605469 1386.796875 436.226562 C 1386.695312 433.230469 1389.640625 431.644531 1391.308594 429.691406 C 1393.121094 427.566406 1394.636719 425.265625 1396.492188 423.382812 C 1393.074219 421.09375 1387.78125 420.675781 1385.671875 417.078125 C 1389.570312 415.109375 1393.128906 418.785156 1396.492188 419.554688 C 1397.796875 415.035156 1395.230469 409.292969 1396.039062 405.363281 C 1401.738281 405.675781 1400.003906 413.417969 1400.773438 418.652344 C 1402.355469 417.222656 1403.765625 415.5 1405.507812 413.699219 C 1407.265625 411.878906 1408.722656 409.480469 1411.140625 409.871094 C 1411.34375 410.203125 1410.417969 412.03125 1410.015625 412.570312 C 1407.804688 415.53125 1403.941406 418.464844 1401.902344 421.582031 C 1407.171875 423.519531 1412.402344 425.5 1416.324219 428.789062 C 1412.886719 431.828125 1406.101562 425.347656 1401.445312 424.960938 C 1401.40625 429.242188 1403.144531 433.507812 1402.125 437.347656 C 1401.339844 437.792969 1399.507812 437.648438 1398.96875 437.125 Z M 1398.96875 437.125 "/>
</g>
<g clip-path="url(#clip48)" clip-rule="nonzero">
<path style=" stroke:none;fill-rule:evenodd;fill:rgb(54.508972%,84.709167%,74.119568%);fill-opacity:1;" d="M 1210.75 524.492188 C 1207.160156 527.550781 1202.019531 524.429688 1203.667969 518.84375 C 1203.890625 518.101562 1204.738281 517.527344 1205.050781 516.726562 C 1205.515625 515.53125 1205.191406 514.253906 1205.914062 513.726562 C 1210.363281 511.039062 1217.535156 512.777344 1216.796875 518.492188 C 1216.734375 518.972656 1216.238281 519.445312 1216.105469 520.078125 C 1215.609375 522.460938 1215.945312 524.8125 1214.207031 526.078125 C 1212.503906 526.996094 1211.109375 525.953125 1210.75 524.492188 Z M 1209.195312 520.785156 C 1208.539062 521.171875 1207.261719 520.921875 1207.46875 522.195312 C 1208.429688 522.652344 1209.34375 521.996094 1209.195312 520.785156 Z M 1209.195312 520.785156 "/>
</g>
</g>
</svg>
