<?xml version="1.0" encoding="UTF-8"?>
<svg xmlns="http://www.w3.org/2000/svg" xmlns:xlink="http://www.w3.org/1999/xlink" width="1440pt" height="809.999993pt" viewBox="0 0 1440 809.999993" version="1.2">
<defs>
<clipPath id="clip1">
  <path d="M 71.515625 57.988281 L 123.265625 57.988281 L 123.265625 107.410156 L 71.515625 107.410156 Z M 71.515625 57.988281 "/>
</clipPath>
<clipPath id="clip2">
  <path d="M 196 298 L 230 298 L 230 333 L 196 333 Z M 196 298 "/>
</clipPath>
<clipPath id="clip3">
  <path d="M 193.09375 302.5 L 226.523438 293.976562 L 234.679688 325.953125 L 201.25 334.476562 Z M 193.09375 302.5 "/>
</clipPath>
<clipPath id="clip4">
  <path d="M 192.953125 302.535156 L 226.386719 294.011719 L 234.539062 325.988281 L 201.109375 334.511719 Z M 192.953125 302.535156 "/>
</clipPath>
<clipPath id="clip5">
  <path d="M 0 442.628906 L 32.421875 442.628906 L 32.421875 492 L 0 492 Z M 0 442.628906 "/>
</clipPath>
<clipPath id="clip6">
  <path d="M 224 510 L 268 510 L 268 553 L 224 553 Z M 224 510 "/>
</clipPath>
<clipPath id="clip7">
  <path d="M 245.46875 499.371094 L 277.554688 527.621094 L 250.792969 558.019531 L 218.707031 529.769531 Z M 245.46875 499.371094 "/>
</clipPath>
<clipPath id="clip8">
  <path d="M 245.335938 499.257812 L 277.421875 527.503906 L 250.660156 557.902344 L 218.574219 529.652344 Z M 245.335938 499.257812 "/>
</clipPath>
<clipPath id="clip9">
  <path d="M 106 669 L 178 669 L 178 740 L 106 740 Z M 106 669 "/>
</clipPath>
<clipPath id="clip10">
  <path d="M 140.753906 650.171875 L 194.792969 697.75 L 149.695312 748.976562 L 95.652344 701.398438 Z M 140.753906 650.171875 "/>
</clipPath>
<clipPath id="clip11">
  <path d="M 140.761719 650.160156 L 194.804688 697.738281 L 149.703125 748.964844 L 95.664062 701.386719 Z M 140.761719 650.160156 "/>
</clipPath>
<clipPath id="clip12">
  <path d="M 392 576 L 413 576 L 413 597 L 392 597 Z M 392 576 "/>
</clipPath>
<clipPath id="clip13">
  <path d="M 390.84375 578.960938 L 410.46875 573.957031 L 415.101562 592.125 L 395.480469 597.128906 Z M 390.84375 578.960938 "/>
</clipPath>
<clipPath id="clip14">
  <path d="M 390.820312 578.859375 L 410.441406 573.855469 L 415.257812 592.75 L 395.636719 597.753906 Z M 390.820312 578.859375 "/>
</clipPath>
<clipPath id="clip15">
  <path d="M 299 455 L 320 455 L 320 478 L 299 478 Z M 299 455 "/>
</clipPath>
<clipPath id="clip16">
  <path d="M 297.4375 458.570312 L 317.785156 453.382812 L 322.605469 472.277344 L 302.253906 477.464844 Z M 297.4375 458.570312 "/>
</clipPath>
<clipPath id="clip17">
  <path d="M 297.410156 458.464844 L 317.757812 453.273438 L 322.761719 472.898438 L 302.414062 478.085938 Z M 297.410156 458.464844 "/>
</clipPath>
<clipPath id="clip18">
  <path d="M 1095.449219 679.691406 L 1147.199219 679.691406 L 1147.199219 729.113281 L 1095.449219 729.113281 Z M 1095.449219 679.691406 "/>
</clipPath>
<clipPath id="clip19">
  <path d="M 1217 564 L 1251 564 L 1251 599 L 1217 599 Z M 1217 564 "/>
</clipPath>
<clipPath id="clip20">
  <path d="M 1253.699219 594.773438 L 1220.269531 603.300781 L 1212.117188 571.324219 L 1245.546875 562.796875 Z M 1253.699219 594.773438 "/>
</clipPath>
<clipPath id="clip21">
  <path d="M 1253.839844 594.738281 L 1220.410156 603.265625 L 1212.253906 571.289062 L 1245.683594 562.761719 Z M 1253.839844 594.738281 "/>
</clipPath>
<clipPath id="clip22">
  <path d="M 1319.664062 379.1875 L 1371.414062 379.1875 L 1371.414062 428.609375 L 1319.664062 428.609375 Z M 1319.664062 379.1875 "/>
</clipPath>
<clipPath id="clip23">
  <path d="M 1079 332 L 1122 332 L 1122 374 L 1079 374 Z M 1079 332 "/>
</clipPath>
<clipPath id="clip24">
  <path d="M 1100.816406 385.203125 L 1068.726562 356.953125 L 1095.488281 326.554688 L 1127.578125 354.804688 Z M 1100.816406 385.203125 "/>
</clipPath>
<clipPath id="clip25">
  <path d="M 1100.949219 385.320312 L 1068.859375 357.070312 L 1095.621094 326.671875 L 1127.710938 354.921875 Z M 1100.949219 385.320312 "/>
</clipPath>
<clipPath id="clip26">
  <path d="M 1321 42 L 1393 42 L 1393 113 L 1321 113 Z M 1321 42 "/>
</clipPath>
<clipPath id="clip27">
  <path d="M 1358.234375 132.09375 L 1304.191406 84.515625 L 1349.289062 33.292969 L 1403.332031 80.867188 Z M 1358.234375 132.09375 "/>
</clipPath>
<clipPath id="clip28">
  <path d="M 1358.222656 132.105469 L 1304.179688 84.53125 L 1349.28125 33.304688 L 1403.320312 80.878906 Z M 1358.222656 132.105469 "/>
</clipPath>
<clipPath id="clip29">
  <path d="M 858 362 L 879 362 L 879 383 L 858 383 Z M 858 362 "/>
</clipPath>
<clipPath id="clip30">
  <path d="M 880.0625 380.171875 L 860.441406 385.175781 L 855.808594 367.007812 L 875.429688 362.003906 Z M 880.0625 380.171875 "/>
</clipPath>
<clipPath id="clip31">
  <path d="M 880.089844 380.273438 L 860.46875 385.277344 L 855.648438 366.382812 L 875.269531 361.378906 Z M 880.089844 380.273438 "/>
</clipPath>
<clipPath id="clip32">
  <path d="M 989 505 L 1011 505 L 1011 527 L 989 527 Z M 989 505 "/>
</clipPath>
<clipPath id="clip33">
  <path d="M 1012.128906 523.753906 L 991.78125 528.941406 L 986.960938 510.046875 L 1007.3125 504.859375 Z M 1012.128906 523.753906 "/>
</clipPath>
<clipPath id="clip34">
  <path d="M 1012.15625 523.859375 L 991.808594 529.050781 L 986.804688 509.425781 L 1007.152344 504.238281 Z M 1012.15625 523.859375 "/>
</clipPath>
<clipPath id="clip35">
  <path d="M 1356 750 L 1390 750 L 1390 786 L 1356 786 Z M 1356 750 "/>
</clipPath>
<clipPath id="clip36">
  <path d="M 1392.867188 780.949219 L 1359.4375 789.476562 L 1351.28125 757.5 L 1384.710938 748.972656 Z M 1392.867188 780.949219 "/>
</clipPath>
<clipPath id="clip37">
  <path d="M 1393.007812 780.914062 L 1359.578125 789.4375 L 1351.421875 757.460938 L 1384.851562 748.9375 Z M 1393.007812 780.914062 "/>
</clipPath>
<clipPath id="clip38">
  <path d="M 697 327 L 719 327 L 719 349 L 697 349 Z M 697 327 "/>
</clipPath>
<clipPath id="clip39">
  <path d="M 719.996094 345.582031 L 699.648438 350.773438 L 694.828125 331.875 L 715.179688 326.6875 Z M 719.996094 345.582031 "/>
</clipPath>
<clipPath id="clip40">
  <path d="M 720.023438 345.6875 L 699.675781 350.878906 L 694.671875 331.257812 L 715.019531 326.066406 Z M 720.023438 345.6875 "/>
</clipPath>
<clipPath id="clip41">
  <path d="M 458 403 L 492 403 L 492 438 L 458 438 Z M 458 403 "/>
</clipPath>
<clipPath id="clip42">
  <path d="M 455.199219 407.421875 L 488.628906 398.898438 L 496.785156 430.875 L 463.355469 439.398438 Z M 455.199219 407.421875 "/>
</clipPath>
<clipPath id="clip43">
  <path d="M 455.058594 407.457031 L 488.492188 398.933594 L 496.644531 430.910156 L 463.214844 439.433594 Z M 455.058594 407.457031 "/>
</clipPath>
</defs>
<g id="surface1">
<rect x="0" y="0" width="1440" height="809.999993" style="fill:rgb(15.289307%,21.569824%,45.098877%);fill-opacity:1;stroke:none;"/>
<g clip-path="url(#clip1)" clip-rule="nonzero">
<path style=" stroke:none;fill-rule:nonzero;fill:rgb(54.508972%,84.709167%,74.119568%);fill-opacity:1;" d="M 105.378906 74.171875 L 123.265625 76.703125 L 110.378906 89.386719 L 113.507812 107.210938 L 97.480469 98.855469 L 81.523438 107.339844 L 84.503906 89.492188 L 71.515625 76.914062 L 89.386719 74.238281 L 97.316406 57.980469 Z M 105.378906 74.171875 "/>
</g>
<g clip-path="url(#clip2)" clip-rule="nonzero">
<g clip-path="url(#clip3)" clip-rule="nonzero">
<g clip-path="url(#clip4)" clip-rule="nonzero">
<path style=" stroke:none;fill-rule:nonzero;fill:rgb(54.508972%,84.709167%,74.119568%);fill-opacity:1;" d="M 217.507812 307.464844 L 229.480469 306.152344 L 223.246094 316.46875 L 228.203125 327.46875 L 216.472656 324.710938 L 207.5625 332.820312 L 206.546875 320.796875 L 196.085938 314.8125 L 207.1875 310.140625 L 209.632812 298.328125 Z M 217.507812 307.464844 "/>
</g>
</g>
</g>
<g clip-path="url(#clip5)" clip-rule="nonzero">
<path style=" stroke:none;fill-rule:nonzero;fill:rgb(54.508972%,84.709167%,74.119568%);fill-opacity:1;" d="M 14.53125 458.816406 L 32.421875 461.347656 L 19.535156 474.03125 L 22.660156 491.855469 L 6.636719 483.5 L -9.324219 491.984375 L -6.339844 474.136719 L -19.328125 461.558594 L -1.460938 458.882812 L 6.46875 442.625 Z M 14.53125 458.816406 "/>
</g>
<g clip-path="url(#clip6)" clip-rule="nonzero">
<g clip-path="url(#clip7)" clip-rule="nonzero">
<g clip-path="url(#clip8)" clip-rule="nonzero">
<path style=" stroke:none;fill-rule:nonzero;fill:rgb(54.508972%,84.709167%,74.119568%);fill-opacity:1;" d="M 257.539062 527.726562 L 267.261719 539.046875 L 252.414062 539.800781 L 244.714844 552.457031 L 239.296875 538.574219 L 224.8125 535.078125 L 236.3125 525.742188 L 235.0625 510.925781 L 247.585938 519.035156 L 261.296875 513.378906 Z M 257.539062 527.726562 "/>
</g>
</g>
</g>
<g clip-path="url(#clip9)" clip-rule="nonzero">
<g clip-path="url(#clip10)" clip-rule="nonzero">
<g clip-path="url(#clip11)" clip-rule="nonzero">
<path style=" stroke:none;fill-rule:nonzero;fill:rgb(54.508972%,84.709167%,74.119568%);fill-opacity:1;" d="M 161.304688 698.121094 L 177.679688 717.1875 L 152.667969 718.464844 L 139.695312 739.785156 L 130.570312 716.402344 L 106.175781 710.511719 L 125.550781 694.785156 L 123.449219 669.828125 L 144.546875 683.488281 L 167.640625 673.953125 Z M 161.304688 698.121094 "/>
</g>
</g>
</g>
<g clip-path="url(#clip12)" clip-rule="nonzero">
<g clip-path="url(#clip13)" clip-rule="nonzero">
<g clip-path="url(#clip14)" clip-rule="nonzero">
<path style=" stroke:none;fill-rule:nonzero;fill:rgb(54.508972%,84.709167%,74.119568%);fill-opacity:1;" d="M 405.242188 581.792969 L 412.269531 581.03125 L 408.617188 587.117188 L 411.539062 593.617188 L 404.648438 591.976562 L 399.425781 596.761719 L 398.816406 589.660156 L 392.667969 586.113281 L 399.183594 583.363281 L 400.609375 576.390625 Z M 405.242188 581.792969 "/>
</g>
</g>
</g>
<g clip-path="url(#clip15)" clip-rule="nonzero">
<g clip-path="url(#clip16)" clip-rule="nonzero">
<g clip-path="url(#clip17)" clip-rule="nonzero">
<path style=" stroke:none;fill-rule:nonzero;fill:rgb(54.508972%,84.709167%,74.119568%);fill-opacity:1;" d="M 312.367188 461.515625 L 319.660156 460.726562 L 315.875 467.046875 L 318.90625 473.796875 L 311.757812 472.089844 L 306.339844 477.054688 L 305.710938 469.679688 L 299.332031 465.996094 L 306.085938 463.144531 L 307.5625 455.90625 Z M 312.367188 461.515625 "/>
</g>
</g>
</g>
<g clip-path="url(#clip18)" clip-rule="nonzero">
<path style=" stroke:none;fill-rule:nonzero;fill:rgb(54.508972%,84.709167%,74.119568%);fill-opacity:1;" d="M 1113.339844 712.925781 L 1095.449219 710.398438 L 1108.335938 697.714844 L 1105.210938 679.890625 L 1121.234375 688.246094 L 1137.195312 679.761719 L 1134.210938 697.609375 L 1147.199219 710.1875 L 1129.332031 712.863281 L 1121.402344 729.121094 Z M 1113.339844 712.925781 "/>
</g>
<g clip-path="url(#clip19)" clip-rule="nonzero">
<g clip-path="url(#clip20)" clip-rule="nonzero">
<g clip-path="url(#clip21)" clip-rule="nonzero">
<path style=" stroke:none;fill-rule:nonzero;fill:rgb(54.508972%,84.709167%,74.119568%);fill-opacity:1;" d="M 1229.285156 589.8125 L 1217.3125 591.125 L 1223.546875 580.808594 L 1218.59375 569.808594 L 1230.320312 572.566406 L 1239.230469 564.453125 L 1240.246094 576.476562 L 1250.707031 582.460938 L 1239.605469 587.132812 L 1237.164062 598.945312 Z M 1229.285156 589.8125 "/>
</g>
</g>
</g>
<g clip-path="url(#clip22)" clip-rule="nonzero">
<path style=" stroke:none;fill-rule:nonzero;fill:rgb(54.508972%,84.709167%,74.119568%);fill-opacity:1;" d="M 1337.554688 412.425781 L 1319.664062 409.894531 L 1332.550781 397.210938 L 1329.425781 379.386719 L 1345.449219 387.742188 L 1361.410156 379.257812 L 1358.425781 397.105469 L 1371.414062 409.683594 L 1353.546875 412.359375 L 1345.617188 428.617188 Z M 1337.554688 412.425781 "/>
</g>
<g clip-path="url(#clip23)" clip-rule="nonzero">
<g clip-path="url(#clip24)" clip-rule="nonzero">
<g clip-path="url(#clip25)" clip-rule="nonzero">
<path style=" stroke:none;fill-rule:nonzero;fill:rgb(54.508972%,84.709167%,74.119568%);fill-opacity:1;" d="M 1088.746094 356.847656 L 1079.019531 345.527344 L 1093.871094 344.773438 L 1101.570312 332.117188 L 1106.988281 346 L 1121.46875 349.5 L 1109.96875 358.832031 L 1111.222656 373.648438 L 1098.695312 365.539062 L 1084.984375 371.195312 Z M 1088.746094 356.847656 "/>
</g>
</g>
</g>
<g clip-path="url(#clip26)" clip-rule="nonzero">
<g clip-path="url(#clip27)" clip-rule="nonzero">
<g clip-path="url(#clip28)" clip-rule="nonzero">
<path style=" stroke:none;fill-rule:nonzero;fill:rgb(54.508972%,84.709167%,74.119568%);fill-opacity:1;" d="M 1337.679688 84.144531 L 1321.304688 65.078125 L 1346.316406 63.800781 L 1359.289062 42.484375 L 1368.414062 65.863281 L 1392.808594 71.753906 L 1373.433594 87.480469 L 1375.535156 112.441406 L 1354.4375 98.78125 L 1331.34375 108.316406 Z M 1337.679688 84.144531 "/>
</g>
</g>
</g>
<g clip-path="url(#clip29)" clip-rule="nonzero">
<g clip-path="url(#clip30)" clip-rule="nonzero">
<g clip-path="url(#clip31)" clip-rule="nonzero">
<path style=" stroke:none;fill-rule:nonzero;fill:rgb(54.508972%,84.709167%,74.119568%);fill-opacity:1;" d="M 865.667969 377.339844 L 858.636719 378.105469 L 862.289062 372.019531 L 859.371094 365.515625 L 866.257812 367.15625 L 871.484375 362.375 L 872.089844 369.476562 L 878.238281 373.019531 L 871.726562 375.769531 L 870.300781 382.742188 Z M 865.667969 377.339844 "/>
</g>
</g>
</g>
<g clip-path="url(#clip32)" clip-rule="nonzero">
<g clip-path="url(#clip33)" clip-rule="nonzero">
<g clip-path="url(#clip34)" clip-rule="nonzero">
<path style=" stroke:none;fill-rule:nonzero;fill:rgb(54.508972%,84.709167%,74.119568%);fill-opacity:1;" d="M 997.199219 520.808594 L 989.910156 521.597656 L 993.695312 515.28125 L 990.664062 508.527344 L 997.808594 510.234375 L 1003.226562 505.269531 L 1003.855469 512.644531 L 1010.234375 516.328125 L 1003.480469 519.179688 L 1002.003906 526.417969 Z M 997.199219 520.808594 "/>
</g>
</g>
</g>
<g clip-path="url(#clip35)" clip-rule="nonzero">
<g clip-path="url(#clip36)" clip-rule="nonzero">
<g clip-path="url(#clip37)" clip-rule="nonzero">
<path style=" stroke:none;fill-rule:nonzero;fill:rgb(54.508972%,84.709167%,74.119568%);fill-opacity:1;" d="M 1368.453125 775.988281 L 1356.480469 777.296875 L 1362.714844 766.980469 L 1357.757812 755.980469 L 1369.488281 758.738281 L 1378.398438 750.628906 L 1379.414062 762.652344 L 1389.875 768.636719 L 1378.773438 773.308594 L 1376.332031 785.121094 Z M 1368.453125 775.988281 "/>
</g>
</g>
</g>
<g clip-path="url(#clip38)" clip-rule="nonzero">
<g clip-path="url(#clip39)" clip-rule="nonzero">
<g clip-path="url(#clip40)" clip-rule="nonzero">
<path style=" stroke:none;fill-rule:nonzero;fill:rgb(54.508972%,84.709167%,74.119568%);fill-opacity:1;" d="M 705.066406 342.636719 L 697.773438 343.429688 L 701.558594 337.109375 L 698.527344 330.355469 L 705.675781 332.0625 L 711.09375 327.097656 L 711.722656 334.472656 L 718.101562 338.15625 L 711.347656 341.007812 L 709.871094 348.25 Z M 705.066406 342.636719 "/>
</g>
</g>
</g>
<g clip-path="url(#clip41)" clip-rule="nonzero">
<g clip-path="url(#clip42)" clip-rule="nonzero">
<g clip-path="url(#clip43)" clip-rule="nonzero">
<path style=" stroke:none;fill-rule:nonzero;fill:rgb(54.508972%,84.709167%,74.119568%);fill-opacity:1;" d="M 479.613281 412.386719 L 491.585938 411.074219 L 485.351562 421.390625 L 490.308594 432.390625 L 478.578125 429.632812 L 469.667969 437.742188 L 468.652344 425.722656 L 458.191406 419.734375 L 469.292969 415.0625 L 471.738281 403.25 Z M 479.613281 412.386719 "/>
</g>
</g>
</g>
</g>
</svg>
